<svg xmlns="http://www.w3.org/2000/svg" width="500" height="500" viewBox="0 0 500 500">
  <defs>
    <linearGradient id="dataiku-icon-a" x1="0%" y1="0%" y2="100%">
      <stop offset="0%" stop-color="#1CC2BC"/>
      <stop offset="100%" stop-color="#169994"/>
    </linearGradient>
  </defs>
  <g fill="none" fill-rule="evenodd">
    <rect width="500" height="500" fill="url(#dataiku-icon-a)"/>
    <path fill="#FFF" d="M308.815242,294.601904 C294.542715,294.601904 280.270188,294.659993 265.998387,294.545993 C263.516524,294.526388 262.544255,295.105102 262.75265,297.721296 C262.982103,300.606153 262.892064,303.52659 262.773707,306.424517 C262.696013,308.321131 263.072141,309.220062 265.297685,309.214253 C294.205071,309.145272 323.112457,309.154712 352.019843,309.201183 C353.896126,309.204087 354.600458,308.652966 354.516955,306.730212 C354.385528,303.712476 354.294037,300.668599 354.539464,297.665385 C354.758751,294.985293 353.691361,294.529292 351.26904,294.548171 C337.1185,294.657089 322.966508,294.601178 308.815242,294.601904 Z M354.47484,153.396391 C353.212125,152.681168 352.154175,153.058748 350.995294,153.488608 C347.939074,154.621348 344.737631,155.405553 341.775805,156.733618 C339.199547,157.888868 337.869304,157.393657 336.194881,155.061374 C328.132094,143.826188 314.279262,140.276936 302.476979,146.367593 C291.872062,151.8396 287.413712,161.234809 286.54673,172.651523 C286.381902,174.818252 285.730577,176.533337 284.374193,178.204855 C240.191514,232.626489 196.039332,287.072812 151.883519,341.516229 C146.249589,348.462977 140.61348,355.408272 135.000607,362.370994 C134.304262,363.235071 132.865101,364.114397 134.291918,365.369851 C135.516149,366.447407 136.555946,365.373482 137.458508,364.6205 C138.570191,363.69325 139.628867,362.690485 140.631633,361.645605 C160.559148,340.876522 180.978243,320.602649 201.646396,300.572026 C205.634949,296.706187 210.067884,294.599725 215.503585,294.521305 C224.208984,294.394961 232.915836,294.341228 241.621961,294.306375 C250.331717,294.272247 250.438456,294.298387 250.426112,285.492058 C250.422482,282.880947 251.275668,282.271009 253.742282,282.298602 C263.539033,282.407519 273.345224,282.535316 283.134713,282.237608 C296.047226,281.84478 307.49589,277.352303 316.921596,268.427617 C332.671042,253.513929 337.80831,234.433065 337.748042,213.506415 C337.719724,203.602925 334.949593,193.862811 335.749046,183.888162 C336.400372,175.765107 338.034858,168.225849 345.142077,162.819919 C348.608552,160.182667 351.355448,156.599287 354.47484,153.396391 Z M64.0758181,232.892248 C65.7313616,229.474422 65.4670555,225.692086 66.0254384,222.082566 C71.9316622,183.925193 87.9824464,150.643687 114.472594,122.625793 C146.943755,88.2812534 186.930938,68.5461589 234.031876,64.7797976 C289.379307,60.3541233 337.785074,77.3481316 378.243506,115.551249 C407.924206,143.577131 426.060394,178.075607 433.137842,218.279898 C447.928089,302.297276 402.704887,386.083749 324.378077,420.299766 C293.4913,433.792445 261.257578,438.520184 227.979703,434.545427 C151.859557,425.455913 90.2130734,371.750229 70.1250867,297.692978 C67.5604466,288.236775 65.8860242,278.596139 64.8847108,268.844407 C64.8142776,268.161132 64.9718447,267.348609 64.0758181,267.019679 L64.0758181,232.892248 Z M317.543877,174.69641 C322.022558,174.648486 325.544944,171.063654 325.487581,166.612566 C325.430218,162.109197 321.90057,158.663053 317.383406,158.701537 C312.850266,158.739295 309.465842,162.210853 309.510861,166.775942 C309.555154,171.325056 313.023082,174.744334 317.543877,174.69641 Z"/>
  </g>
</svg>
