<svg xmlns="http://www.w3.org/2000/svg" xmlns:xlink="http://www.w3.org/1999/xlink" width="500" height="500" viewBox="0 0 500 500">
  <defs>
    <linearGradient id="jupyter-spark-icon-a" x1="0%" y1="0%" y2="100%">
      <stop offset="0%" stop-color="#FFF"/>
      <stop offset="100%" stop-color="#F7F7F7"/>
    </linearGradient>
    <linearGradient id="jupyter-spark-icon-b" x1="83.232%" x2="64.236%" y1="81.793%" y2="39.962%">
      <stop offset="0%" stop-color="#FFF"/>
      <stop offset="100%" stop-color="#EEE"/>
    </linearGradient>
    <polygon id="jupyter-spark-icon-c" points=".132 .068 73.77 .068 73.77 62.05 .132 62.05"/>
    <polygon id="jupyter-spark-icon-e" points=".121 .04 42.738 .04 42.738 49.18 .121 49.18"/>
  </defs>
  <g fill="none" fill-rule="evenodd">
    <rect width="500" height="500" fill="url(#jupyter-spark-icon-a)"/>
    <polygon fill="url(#jupyter-spark-icon-b)" points="500 315.133 500 500 0 500"/>
    <g transform="translate(90 62.5)">
      <path fill="#9E9E9E" d="M46.4135934,374.487761 C44.1488644,373.043853 41.4168204,373.15639 38.9683444,372.176618 C28.2086562,367.869691 21.0336233,357.866608 20.8740368,346.506086 C20.7023701,334.277694 27.2797485,324.073061 38.3071097,319.459677 C48.8938596,315.03004 61.6798509,317.37043 69.4105753,325.593265 C76.9302132,333.591663 79.5395473,343.100727 76.2766081,353.748514 C72.8222923,365.020023 64.8951049,371.463883 53.4710029,373.805545 C52.7862434,373.945421 51.9393543,373.633878 51.5000146,374.487761 L46.4135934,374.487761 Z"/>
      <path fill="#767677" d="M272.759337,0 C273.102034,0.192648203 273.423115,0.483845817 273.791244,0.56395695 C285.142229,3.03913667 292.748972,13.147763 291.731052,24.4326242 C290.714404,35.7079484 281.439315,44.7414325 270.465997,45.1445313 C258.432796,45.58705 248.630626,37.5257082 246.817317,25.6959641 C245.151514,14.826282 252.263603,4.12000117 263.197501,0.924457053 C264.053291,0.674586611 265.164674,0.989944726 265.765508,0 L272.759337,0 Z"/>
      <path fill="#F4770E" d="M298.849626 127.13478C295.078044 123.621335 291.438074 119.953389 287.513264 116.621147 269.876735 101.645452 249.480186 91.8591773 227.477599 85.2468298 200.223283 77.0551484 172.361775 74.3205612 143.985267 76.138321 118.420278 77.7755128 93.7454131 83.1156193 70.2385175 93.4111716 52.7196113 101.084038 36.7984771 111.160238 23.5502573 125.145989 22.948788 125.781156 22.5049978 126.838496 21.0401084 126.25165 37.2282797 87.2318057 64.321738 58.9551186 103.36765 42.6760276 178.990653 11.14721 266.538135 47.6817018 297.829798 123.60989 298.297749 124.745434 299.132558 125.826934 298.793039 127.197089L298.849626 127.13478zM21.6778185 230.731192C29.4072713 238.605608 37.6924156 245.797172 47.0215479 251.758457 66.7079054 264.337177 88.1967633 272.429037 110.983295 277.036063 151.931528 285.316121 192.474756 283.717078 232.346576 270.860512 254.964619 263.567856 275.628841 252.685458 292.953828 236.091644 294.84089 234.284057 296.546748 232.288909 298.505656 230.200933 299.097589 231.869915 298.365144 232.790557 297.960774 233.705477 275.637107 284.182485 237.533454 315.226821 182.999389 324.184009 114.923999 335.366506 48.9702831 297.925359 22.3930965 234.395323 21.9448556 233.325267 21.6123308 232.20689 21.2270344 231.111402 21.3929789 231.003316 21.5436641 230.876791 21.6778185 230.731192"/>
      <path fill="#626363" d="M26.2439624,68.19047 C17.1818672,68.0346983 10.0449825,60.6740111 10.1842233,51.6265394 C10.323464,42.5428269 17.8837934,35.3906829 27.1321787,35.5922323 C35.894175,35.7836089 43.1582203,43.3992531 42.9191585,52.1440827 C42.6731029,61.1165297 35.1623662,68.3436984 26.2439624,68.19047"/>
      <g fill="#515151" transform="translate(0 141.148)">
        <path d="M0 76.296318C7.85407013 76.2454538 12.1400158 72.5355453 12.7440283 64.878574 13.9863867 49.1386436 13.0180593 33.3643799 13.3060779 17.6079186 13.3931828 12.8171456 12.6537443 13.5267014 17.5697704 13.4847384 22.2289322 13.4446828 22.2225742 13.4758372 22.2308397 18.1680607 22.2562718 32.3464598 22.2969631 46.5248589 22.3141298 60.703258 22.3293891 73.0301998 15.9980663 80.8810909 4.87787793 82.8991285 1.69187085 83.4770731.588753254 82.594579.622450794 79.5732448.629444623 78.8840348.771228614 78.0581271 0 77.5679233L0 76.296318zM319.808733 20.9814874C308.939687 21.0310801 304.294512 25.6883345 304.071346 37.0539426 303.926383 44.4540497 303.942278 51.8611505 304.09487 59.2606218 304.144463 61.6843015 303.583049 62.517203 301.008049 62.4351844 295.263572 62.252709 295.249584 62.4014869 295.260393 56.5438371 295.284553 42.9173147 295.349405 29.2914281 295.30172 15.6655415 295.295997 14.1580534 295.817356 13.8446027 297.09977 13.8910163 298.578011 13.9444237 300.065153 13.9806645 301.53958 13.8833867 303.015913 13.7861089 303.316012 14.494393 303.274685 15.7812576 303.204111 17.9989372 303.254975 20.2197959 303.254975 23.2430375 304.121574 21.7342778 304.62958 20.8276232 305.157932 19.9330489 308.340125 14.5439856 315.087262 11.5150218 319.808733 13.3518556L319.808733 20.9814874zM105.584821 38.8401666C105.584821 40.533309 105.494537 42.2309021 105.600716 43.9170508 105.974568 49.8465463 109.994749 54.62206 115.850491 56.1956715 121.643925 57.753388 127.671334 55.6177269 130.776594 50.5204971 134.895324 43.7593717 135.215132 36.5213943 132.469101 29.1969478 130.402106 23.6858104 126.414352 20.0719082 120.406653 19.9644575 114.723213 19.8620933 110.370508 22.7855139 107.485235 27.7536758 105.475463 31.2156212 105.399803 35.0062766 105.584821 38.8401666M105.546037 56.3845049C105.546037 64.5850875 105.431593 72.183565 105.612161 79.7750486 105.671291 82.2483209 104.889253 82.7385247 102.592734 82.6870247 96.6975719 82.5554136 96.7077448 82.6679507 96.6924855 76.6558008 96.6422571 56.4385481 96.6002941 36.2212955 96.4877571 16.0046786 96.4801274 14.5887461 96.5704114 13.9847336 98.240665 13.9103447 104.093864 13.6477582 104.088142 13.5689187 104.631753 19.3547228 104.690247 19.9701797 104.784346 20.5824577 104.920408 21.6658654 108.110229 17.5267902 111.759737 14.6192646 116.532071 13.4188692 127.238352 10.7268808 137.229991 16.0593577 141.08677 26.7115952 143.979036 34.6991839 143.716449 42.7509887 140.412819 50.5580094 136.213342 60.4828888 125.462555 65.720631 115.390806 62.9949451 111.862737 62.0399695 109.896835 60.7518333 105.546037 56.3845049M260.957886 33.0940366C264.03072 33.0940366 267.10419 33.0946724 270.177024 33.0940366 274.387309 33.092765 274.710297 32.6858513 273.744513 28.6148069 272.249105 22.3089162 266.565665 18.22452 260.361503 18.9970202 254.123007 19.7733352 248.044734 26.1300901 248.012308 31.7372337 248.003407 33.3248329 248.914512 33.0876785 249.831975 33.0895859 253.540612 33.0984872 257.249249 33.0934008 260.957886 33.0940366zM264.920844 40.0598904C260.155503 40.0598904 255.381261 40.2385509 250.629272 39.9905879 247.950635 39.8507113 247.708394 40.9652734 247.956993 43.1111073 248.789259 50.2956773 255.250286 56.3205432 262.582362 56.6022037 267.05269 56.7738705 271.454352 56.3866666 275.726946 54.9306786 276.723248 54.59116 278.32102 53.688956 278.327378 55.6580368 278.334372 57.5317472 281.327095 59.968143 277.888675 61.3046001 271.030271 63.9711565 263.804374 64.6616381 256.66749 63.1242673 244.480424 60.4990382 237.685601 49.6217264 239.246497 36.0804016 239.797738 31.2940793 241.073158 26.7468187 243.768325 22.6846756 248.80579 15.0931919 257.973428 11.497728 267.116906 13.514494 274.993229 15.2521426 280.393737 21.7939161 281.674879 31.1484805 282.895621 40.0598904 282.895621 40.0598904 274.132988 40.0598904L264.920844 40.0598904zM172.640574 52.0451518C175.625032 43.2113098 178.386323 35.0253507 181.156515 26.8419348 182.375985 23.2401128 183.707991 19.6726241 184.797757 16.0326539 185.277788 14.4278881 186.011504 13.9167027 187.681758 13.8880916 195.055797 13.7615669 195.093309 13.7176965 192.386697 20.597717 186.972202 34.3583937 182.10704 48.3390582 176.037668 61.8371484 173.388914 67.7291316 170.511907 73.5181147 165.726221 78.0730049 162.853664 80.8069563 159.604713 82.8784013 155.799434 84.1334758 154.351075 84.6115994 153.607822 84.471087 153.308359 82.94071 153.226976 82.5261667 153.169118 82.086827 152.983464 81.7174257 151.439735 78.6395051 151.954099 76.7155662 155.529853 75.4267943 158.513675 74.3522878 160.759966 71.9025402 162.875281 69.4960272 166.839511 64.9856432 168.431561 60.591611 165.568541 54.3442142 159.898453 41.9683156 155.23802 29.1314601 150.056864 16.5279442 149.143852 14.3077214 149.399444 13.7024372 151.922945 13.7272335 158.766089 13.7952644 158.81441 13.6719187 161.142719 20.0248588 164.958171 30.4342198 169.200246 40.6897165 172.640574 52.0451518M71.6656401 55.0193095C67.9690835 60.001459 63.6087489 63.0011759 57.92213 63.5435156 46.8865034 64.5964048 39.4914828 58.1582671 38.9281617 46.3507761 38.4449517 36.2001868 38.7851061 26.0114494 38.6814703 15.8405144 38.6649394 14.2268473 39.3160013 13.9846064 40.7338412 13.9273842 47.6412012 13.6482668 47.635479 13.6056681 47.6405654 20.5136639 47.6462876 27.613672 47.6323 34.7130444 47.6946086 41.811781 47.7085963 43.3885716 47.9006087 44.9831646 48.1968927 46.5345231 49.3534177 52.5784631 52.4974618 55.668464 57.6525497 55.9469455 63.6608848 56.2731123 68.8903616 52.7170681 70.5116583 47.1811344 71.021572 45.4403067 71.1582696 43.6537013 71.1525474 41.8384847 71.1290227 33.361328 71.2059548 24.8835355 71.0978684 16.4076503 71.0705288 14.2859769 71.5244919 13.4670631 73.8528012 13.4944026 80.0684079 13.5681557 80.0684079 13.4518038 80.0703153 19.5803056 80.0741302 33.1387971 80.039161 46.6972886 80.1300808 60.2551443 80.1427968 62.0646386 79.6951918 62.5770956 77.8844258 62.5999845 72.3809181 62.6699227 72.3821897 62.7506697 71.6656401 55.0193095M218.678854 6.91562542C218.679489 13.9399731 218.679489 13.9399731 225.727997 13.9399731 226.68043 13.9399731 227.653844 14.0677694 228.580844 13.9151768 231.046487 13.5101705 231.392363 14.6158313 231.54432 16.8729307 231.759857 20.0754687 230.626857 20.7551417 227.66656 20.6012775 224.766028 20.4505922 220.859021 19.2241289 219.178594 21.1639628 217.739773 22.8234077 218.701107 26.6051619 218.689662 29.4484713 218.665502 35.5858743 218.623539 41.7245489 218.726539 47.8600445 218.837804 54.4488673 221.189002 56.5012383 227.78927 56.0701641 229.050702 55.9881455 230.892622 55.2576083 230.620499 57.6202509 230.406233 59.4850601 232.45924 62.2317276 228.7239 62.967987 225.889491 63.5268576 223.044274 63.8466663 220.214317 63.3577341 213.864556 62.2622461 209.838653 56.8388495 209.802413 49.4050449 209.762357 41.1523265 209.817672 32.8983365 209.827845 24.6449823 209.832295 20.4620367 209.817672 20.2827403 205.648714 20.5154441 202.908405 20.6680367 202.176596 19.9400427 202.081861 17.0948258 201.97441 13.8687632 203.426584 13.5553125 205.80385 13.9062756 208.973326 14.3742263 210.595259 13.3747445 209.934024 9.91915714 209.85582 9.51097184 209.923215 9.07481122 209.923215 8.65136666 209.923215 1.74400667 209.936567 1.80695113 216.677347.363679116 218.217897.0336975404 218.805378.13924078 218.701107 1.83810546 218.597471 3.52488989 218.678218 5.22248297 218.678854 6.91562542"/>
      </g>
    </g>
    <g transform="translate(287.56 377.977)">
      <g transform="translate(125.44 .087)">
        <mask id="jupyter-spark-icon-d" fill="#fff">
          <use xlink:href="#jupyter-spark-icon-c"/>
        </mask>
        <path fill="#E35A01" d="M73.7701137,17.1877984 C72.6500219,20.4327496 70.0853432,22.6442967 67.991766,25.1800276 C64.9710822,28.8386517 61.8637107,32.426774 58.7547829,36.011628 C58.1607311,36.6965695 58.1445453,37.2462658 58.5589964,38.0196069 C61.0416564,42.6515608 63.4780934,47.3084159 65.9374084,51.9531317 C66.8533095,53.6829942 67.5080582,55.4562783 66.9947801,57.4580319 C66.179418,60.6380841 63.0524367,62.5472359 59.5634527,61.9362202 C56.7503835,61.4434856 54.0920137,60.3822232 51.358473,59.5961201 C49.4437183,59.0456457 47.5485735,58.4279377 45.6352195,57.8729499 C45.1185174,57.7230751 44.874329,57.468148 44.7853069,56.9245214 C44.3621403,54.3436569 43.8967972,51.7696402 43.4516864,49.1923552 C43.4261625,49.0438812 43.4484181,48.8874699 43.4484181,48.6342547 C47.8760256,49.8506835 52.2636354,51.0562178 56.6929549,52.2732691 C56.6635402,51.7830247 56.4384947,51.4877886 56.272901,51.1737209 C53.9198834,46.7072051 51.5751143,42.2361759 49.1894138,37.7869354 C48.7843007,37.031959 48.8378385,36.5023393 49.4006079,35.8485245 C53.2073948,31.4272979 56.9793199,26.9763454 60.7596491,22.5323964 C60.9543462,22.3034601 61.2201676,22.1064285 61.2022698,21.6712782 C59.2859588,22.1744402 57.3895689,22.6688867 55.4952021,23.1704924 C51.5930122,24.2042077 47.6887989,25.2306084 43.7933011,26.2889138 C43.1304596,26.4689814 42.7560062,26.317239 42.4006957,25.7205415 C39.8167185,21.3808667 37.2017703,17.0597123 34.594915,12.7337332 C34.3966384,12.4044135 34.2357137,12.0436558 33.7937155,11.745774 C33.5800312,12.8671108 33.3647906,13.932731 33.1752294,15.0028646 C32.3262506,19.7963656 31.474626,24.5895554 30.651171,29.3874142 C30.5358468,30.0594382 30.1017859,30.2500888 29.5594044,30.4203514 C24.9436364,31.8700742 20.3277128,33.3182407 15.7197264,34.7914641 C14.599479,35.1497316 13.4381444,35.4099503 12.1596181,36.0363737 C16.9045616,37.9224919 21.4478046,39.7281477 25.9921369,41.534426 C25.9838884,41.8894252 25.6969009,41.9610165 25.4969123,42.0911258 C22.7823588,43.8561614 20.0581562,45.6068787 17.3496724,47.3815635 C16.8413746,47.7146185 16.3847469,47.7606859 15.8263351,47.5087158 C12.4296416,45.9765074 9.01987491,44.4734025 5.62037999,42.9471081 C3.73893082,42.1023314 2.12610448,40.921387 1.03278159,39.1263143 C-0.513589399,36.5876263 -0.0488688095,33.9241206 2.27660174,32.0643044 C3.65520019,30.9617992 5.2725399,30.3342863 6.93158929,29.8068456 C12.1835856,28.1369018 17.4344925,26.4635342 22.6956712,24.8225383 C23.4859763,24.5760153 23.8565388,24.1724586 24.0022115,23.3290825 C24.9406794,17.8945285 25.9351752,12.4694681 26.9203331,7.04285143 C27.0546445,6.30250453 27.303035,5.5887709 27.6172583,4.90647516 C28.6436589,2.67889787 30.0315954,0.808809923 32.5273286,0.0681517569 L34.2392933,0.0681517569 C35.1813407,0.461747996 36.1361501,0.819859877 36.8936167,1.55693848 C37.8870231,2.52357598 38.6781064,3.63759808 39.388883,4.8169861 C41.7801863,8.78485329 44.1873643,12.7433825 46.5517431,16.7272799 C46.988761,17.4634247 47.4632865,17.6304191 48.2711782,17.3980588 C50.3829644,16.7906226 52.5159167,16.2572678 54.6410874,15.697611 C58.7919792,14.6045993 62.9319766,13.4675435 67.0985874,12.4372521 C70.2226116,11.6645335 72.4052109,12.5661163 73.7701137,15.0089343 L73.7701137,17.1877984 Z" mask="url(#jupyter-spark-icon-d)"/>
      </g>
      <path fill="#3D3B3F" d="M0,82.7968209 C2.80653262,81.2972955 5.61773423,79.8066411 8.41461759,78.2895292 C8.85288054,78.0517217 9.0301467,78.0688414 9.24320848,78.5662449 C9.66979895,79.5632309 10.1206682,80.5544584 10.6986897,81.48032 C12.4797555,84.3335426 15.4718028,85.3085843 18.5791743,84.0401741 C19.5500139,83.6439321 20.4164237,83.0811626 21.1729564,82.359803 C23.0207888,80.5981913 23.286299,78.2134246 21.8726831,76.0891877 C21.0946729,74.9205384 20.1611853,73.8754617 19.2196047,72.8391006 C16.6910329,70.0563798 14.1075226,67.3214385 11.641671,64.4844018 C8.4578836,60.8211087 7.37545503,56.6026721 9.10220485,51.9836358 C10.3469588,48.6535533 12.6425478,46.0113693 15.6204325,44.062064 C19.7358399,41.3683655 24.2414196,40.6558769 29.0028603,41.8632789 C31.4406979,42.4816094 33.3745955,43.9682172 34.9855542,45.8607164 C35.7908001,46.8068103 36.5026662,47.8318102 37.2735172,48.8077857 C37.5027648,49.0980415 37.5742004,49.2751521 37.2106414,49.5419073 C34.5812193,51.4720696 31.96845,53.4246431 29.3197294,55.3930912 C28.889715,54.7336736 28.4967412,54.0952664 28.0685944,53.4814492 C26.917376,51.8301815 25.4986242,50.5620826 23.3860598,50.3482426 C21.4417349,50.1515223 19.8072755,50.7855718 18.5399548,52.2721797 C17.4696656,53.5281392 17.5130872,55.0505427 18.6107679,56.4654037 C20.7292463,59.1958317 23.1600805,61.6456531 25.5309959,64.1494792 C26.5295382,65.2038938 27.5218552,66.2640668 28.5105926,67.3276638 C33.1623119,72.3312696 33.3773969,78.2941982 30.4325064,83.7664154 C27.3195321,89.5509884 22.3688416,92.6238093 15.9072644,93.4030645 C13.5575151,93.6866281 11.2449621,93.5283492 8.97832086,92.8745343 C5.41914632,91.8475111 2.96107633,89.5344912 1.41159268,86.2167037 C0.910298301,85.1429906 0.468922685,84.0412635 0,82.952454 L0,82.7968209 Z"/>
      <g transform="translate(31.594 54.56)">
        <mask id="jupyter-spark-icon-f" fill="#fff">
          <use xlink:href="#jupyter-spark-icon-e"/>
        </mask>
        <path fill="#3D3B3F" d="M24.737547,8.40834557 C18.8034106,8.46172774 13.4508752,13.0323621 12.4654061,18.8877482 C11.3878022,25.2909629 15.7209404,30.3758092 22.2187801,30.2537928 C25.7335992,30.1878044 28.6061202,28.5785576 30.9529125,26.084692 C33.3876375,23.4972908 34.6272556,20.3407393 34.1955292,16.7896577 C33.5785994,11.7141493 29.6658264,8.36414575 24.737547,8.40834557 M10.1010273,35.1968573 C9.73124292,37.9965421 9.37562117,40.6659619 9.02715854,43.3361599 C8.80242427,45.0573069 8.58313716,46.7792321 8.37194298,48.5022467 C8.31622631,48.9571624 8.12448626,49.1845424 7.62910594,49.1800291 C5.34721268,49.1590186 3.06469689,49.1429884 0.782959257,49.1672672 C0.163539315,49.1738038 0.0662685958,48.9624539 0.143151372,48.3950155 C0.650204179,44.6467467 1.12395149,40.8936532 1.61123889,37.1427386 C2.21525115,32.4925757 2.7966966,27.8393001 3.43525942,23.1938062 C3.89640045,19.8388224 4.25373416,16.4631393 5.69536404,13.317949 C9.61218356,4.77275516 18.2104483,-0.504920632 27.5722492,0.0847733775 C33.9104093,0.483816777 41.3087424,5.24183348 42.508674,13.7988554 C43.564178,21.3266753 40.9321102,27.4765193 35.5526503,32.6046316 C31.3256539,36.6339739 26.2644638,38.6435091 20.4296214,38.6452211 C17.0567397,38.6461549 13.944388,37.6992828 11.1152885,35.8483377 C10.8149165,35.6517731 10.510965,35.460033 10.1010273,35.1968573" mask="url(#jupyter-spark-icon-f)"/>
      </g>
      <path fill="#3D3B3F" d="M104.652431 80.909909C104.473297 82.2994018 104.299922 83.6711523 104.118609 85.0419691 103.874265 86.8910466 103.618249 88.7387234 103.38013 90.5884234 103.333596 90.9502705 103.222474 91.2268306 102.859537 91.3768609 96.4167915 94.0383434 90.0882807 94.1693866 84.2367855 89.9878351 79.0523339 86.2828323 76.9614026 80.9674932 77.5789549 74.7118187 78.5384333 64.9934622 85.8259556 56.988938 95.4263421 55.0240695 100.904473 53.9028883 106.071338 54.6416788 110.496923 58.3816991 114.888423 62.0930828 116.881306 66.8498545 116.351375 72.5776213 115.761837 78.9506432 114.787729 85.2785315 113.968009 91.6246289 113.903577 92.1235888 113.745298 92.2678607 113.25412 92.2628805 110.920245 92.2396911 108.586059 92.2445157 106.252184 92.2597678 105.822014 92.2624136 105.672606 92.1866202 105.737194 91.6969983 106.434742 86.4059381 107.135247 81.1151891 107.771475 75.8166585 108.10344 73.0513686 107.882286 70.3355702 106.647804 67.768557 105.251463 64.8653762 102.907316 63.3225847 99.7513874 63.0536506 93.2253781 62.4969509 87.4630607 66.8686861 86.1650802 73.2952458 84.749908 80.3026284 90.690581 86.1223745 97.6926721 84.5996597 100.132377 84.0692619 102.265018 82.9788961 104.067406 81.2454541 104.205453 81.1128546 104.301011 80.897614 104.652431 80.909909M154.070439 42.8039568C153.118742 50.0675116 152.172492 57.2887341 151.226399 64.510268 151.276668 64.5359475 151.326938 64.5617826 151.377207 64.5876177 156.333189 59.0993702 161.289171 53.6111228 166.34398 48.0136209 166.677502 49.9384917 166.987056 51.7334088 167.30019 53.5277034 167.442439 54.3438437 167.568502 55.1637191 167.744834 55.9725446 167.907627 56.7189612 167.742811 57.2884229 167.188913 57.860686 164.123718 61.0282875 161.108948 64.2446022 158.045309 67.4139157 157.562535 67.9133425 157.503239 68.2286552 157.926561 68.8185049 163.33528 76.3536395 168.713806 83.9105628 174.100892 91.4611052 174.274423 91.7043598 174.458848 91.9398327 174.651678 92.1967831 174.36469 92.3681352 174.103538 92.2915636 173.858571 92.2918749 170.876485 92.2966995 167.89362 92.2549899 164.912778 92.3121072 163.943183 92.3307832 163.354112 92.0246528 162.819823 91.204933 158.901914 85.1953145 154.936848 79.2160445 150.986257 73.2275921 150.775218 72.9080772 150.558265 72.5922975 150.23735 72.1168383 150.000632 73.8624197 149.781656 75.4305793 149.57622 77.0006065 148.937502 81.880484 148.299406 86.7605171 147.674539 91.6424178 147.614464 92.1130524 147.445758 92.2811362 146.942907 92.2758447 144.298233 92.2478307 141.652936 92.2518772 139.008262 92.2725764 138.522064 92.2764672 138.402538 92.170948 138.470239 91.6628057 139.145686 86.5785819 139.784716 81.4895335 140.448647 76.4037534 141.142771 71.0870137 141.854015 65.7722972 142.55592 60.4564913 143.027022 56.8868894 143.497189 53.3172874 143.960976 49.746596 144.007044 49.3912855 144.129527 49.102586 144.438459 48.9030643 147.550032 46.8947741 150.660205 44.8844607 153.772712 42.8780381 153.832164 42.8395968 153.916829 42.8405306 154.070439 42.8039568M135.249768 64.0532046C134.369196 64.0532046 133.481309 63.9808351 132.609452 64.0692348 131.059035 64.226113 130.026097 65.1493288 129.773349 66.7123526 129.360299 69.2681602 129.050433 71.8407762 128.710997 74.4081006 128.005357 79.7494304 127.310299 85.0923165 126.60637 90.4338018 126.528865 91.0224064 126.616642 91.8075757 126.275494 92.1407863 125.885789 92.5214649 125.091593 92.2525309 124.474507 92.2573555 122.50388 92.2721406 120.532631 92.2467724 118.562315 92.2735413 118.039855 92.2807005 117.852161 92.2098874 117.934024 91.6054082 118.616164 86.5745666 119.253793 81.5376553 119.91788 76.5043236 120.436294 72.5756759 120.864752 68.6339551 121.5402 64.7278743 122.376105 59.8929748 127.349518 55.644501 132.248072 55.5607704 134.347563 55.5248191 136.448144 55.5508099 138.548257 55.5411606 138.91135 55.5394487 139.187754 55.5140805 139.109937 56.0575514 138.768323 58.4420069 138.439937 60.8292638 138.169135 63.2224348 138.091785 63.9047305 137.822696 64.0709467 137.193626 64.0163195 136.550239 63.9602916 135.898136 64.0038688 135.249924 64.0038688 135.249924 64.020366 135.249768 64.0368631 135.249768 64.0532046M102.163888 41.2474696C102.754827 41.1984452 103.695941 41.5504874 104.136849 41.1203173 104.560794 40.7063332 104.475507 39.7709779 104.615421 39.0650259 104.64079 38.9378737 104.678608 38.8132115 104.702265 38.6860592 105.009951 37.0344802 105.02427 37.034169 106.708843 37.191981 107.032716 37.2224851 107.093879 37.3191333 107.040808 37.6140581 106.477572 40.7491323 105.91776 43.8846734 105.37351 47.0228602 105.318261 47.3412857 105.203715 47.4415134 104.881398 47.4651696 103.09473 47.5973022 103.093018 47.6022825 103.42156 45.8984107 103.548867 45.2372811 103.642559 44.569148 103.787297 43.9120648 103.896085 43.4187077 103.737806 43.278171 103.241959 43.2940456 102.179607 43.3284405 101.114609 43.3292187 100.052413 43.293423 99.5685496 43.2772372 99.3589117 43.4210422 99.2929233 43.9134655 99.1659266 44.8625165 98.9631366 45.80114 98.8235337 46.7487902 98.7502305 47.2460382 98.6132733 47.4986308 98.0070822 47.4765309 96.5740121 47.424705 96.5603164 47.4653253 96.7957894 46.0890613 97.2678247 43.3323313 97.774255 40.5815154 98.2192102 37.8205833 98.3185041 37.2050542 98.638019 37.1877789 99.1159684 37.1940042 100.478381 37.2120576 100.479004 37.1982063 100.24711 38.552526 100.115911 39.3182411 100.002144 40.0876914 99.8418414 40.8473368 99.7732072 41.1722988 99.856004 41.2582083 100.166959 41.2513605 100.78918 41.2378204 101.411869 41.2474696 102.163888 41.2474696M50.6500776 40.2872286C50.5991855 40.2696421 50.5481379 40.2518999 50.4972458 40.2343134 50.0090246 41.2045304 49.5208034 42.1745919 48.9972535 43.2148438 49.6275678 43.2148438 50.1182791 43.195701 50.6068116 43.2207579 51.0018085 43.2409902 51.1031257 43.0758634 51.041495 42.7152614 50.9032927 41.9072141 50.77972 41.0966767 50.6500776 40.2872286M44.3380639 47.4287671C45.6894265 44.9008178 46.9926985 42.4625132 48.2965931 40.0245199 48.711511 39.248533 49.1469726 38.4826623 49.536678 37.6943803 49.7212589 37.3205495 49.9459932 37.1882613 50.3736731 37.1887282 52.1687459 37.1909071 52.1843092 37.1705192 52.5137846 38.9087858 53.0152346 41.5543938 53.4852467 44.2057601 53.9871636 46.8512124 54.0788315 47.3341421 53.961951 47.5416011 53.4566102 47.4569367 53.4313976 47.4527346 53.40494 47.4561585 53.3789492 47.4564698 51.7628546 47.475457 51.7332843 47.4790366 51.5435675 45.8856644 51.4817811 45.3666278 51.29222 45.2475684 50.8164494 45.268112 50.0140049 45.3028182 49.2082921 45.2967485 48.405225 45.2690458 48.0380864 45.2564395 47.786272 45.3680285 47.6997399 45.7161799 47.2947825 47.3473709 46.1722006 47.7141982 44.6831026 47.4564698 44.6068423 47.4433966 44.5285588 47.4435522 44.3380639 47.4287671M76.067757 40.035243C75.7059099 40.7447745 75.4235914 41.2619435 75.175979 41.7952983 74.973189 42.2313824 74.4300293 42.796642 74.6430911 43.0708676 74.9378603 43.4498343 75.6414778 43.1684496 76.1672066 43.2140501 76.4705356 43.2405078 76.5813464 43.1251836 76.5245403 42.8080032 76.3701522 41.9465737 76.2381753 41.0810978 76.067757 40.035243M69.9239827 47.4561429C69.879316 47.1055014 70.0811722 46.9117382 70.196652 46.6946299 71.7626328 43.7531634 73.3490015 40.8224355 74.8983295 37.8720978 75.1582369 37.3771844 75.4344857 37.1695698 76.0179544 37.1848218 77.7043952 37.2287104 77.6880537 37.2010077 77.9783096 38.8505635 78.4484773 41.5229403 78.9262711 44.1943833 79.4437513 46.8580447 79.5428896 47.3683658 79.4505992 47.4654809 78.9524175 47.4681267 77.2964807 47.4765309 77.2848082 47.497697 77.0122946 45.8551447 76.9411702 45.426531 76.7996997 45.19277 76.3236179 45.2719873 76.122073 45.305604 75.9054316 45.3065378 75.7040423 45.2729211 74.1181405 45.0091229 72.8836584 45.3474694 72.4427496 47.1139056 72.3797182 47.3669651 72.1932697 47.4687492 71.9167096 47.4615901 71.2534011 47.4446261 70.5893144 47.4561429 69.9239827 47.4561429M116.351126 37.2016147C117.103145 37.2016147 117.855787 37.2190456 118.606873 37.1949224 119.047003 37.1806042 119.246214 37.2081513 119.129489 37.7735665 118.824292 39.2506807 118.860399 39.2581511 117.340642 39.2581511 117.133183 39.2581511 116.925724 39.2542603 116.718265 39.2587737 114.946381 39.2964369 115.449854 38.9551334 115.039138 40.7122317 114.952451 41.0832611 115.001787 41.2834053 115.471954 41.258504 116.221795 41.2188176 116.975682 41.2600603 117.727234 41.2427851 118.057177 41.235159 118.220747 41.3207573 118.131414 41.6774685 118.112582 41.7521724 118.114916 41.8320122 118.1034 41.908895 117.89205 43.3046131 117.891894 43.3046131 116.459602 43.3046131L116.148492 43.3046131C114.511542 43.3046131 114.52944 43.3071032 114.297391 44.9112141 114.236227 45.3331355 114.377386 45.3988127 114.733319 45.3928987 115.563 45.379203 116.393303 45.4069057 117.22236 45.3818487 117.653153 45.3687755 117.728012 45.5161601 117.680389 45.9267204 117.503589 47.454571 117.520087 47.4565943 116.00671 47.4565943 114.762111 47.4565943 113.517046 47.4377626 112.272915 47.4659322 111.797922 47.4766709 111.728043 47.341737 111.811618 46.8891558 112.371275 43.8596009 112.918481 40.8274002 113.419153 37.7877291 113.506774 37.2551525 113.723883 37.1771803 114.173351 37.1941443 114.89829 37.2216913 115.625097 37.2016147 116.351126 37.2016147M63.0536195 41.639743C63.3834062 41.6234015 63.5651857 41.6260473 63.7438525 41.6036361 64.5226408 41.5052759 64.9610594 40.9604043 64.922618 40.1573372 64.8827759 39.3268787 64.2971284 39.324233 63.6713275 39.2395685 62.8754196 39.132026 62.6180023 39.4901379 62.5803391 40.1883082 62.5694448 40.3929658 62.5432984 40.60416 62.4788663 40.7973007 62.2441715 41.4999844 62.4930289 41.758958 63.0536195 41.639743zM62.9993035 37.2079334C63.5169394 37.2079334 64.0361316 37.1808532 64.5517442 37.2129136 66.2974813 37.3213899 67.3828669 38.6375795 67.177898 40.3711772 66.9385342 42.3961201 65.5622703 43.6298241 63.4602889 43.7035942 61.9917345 43.7549531 61.9889331 43.7544862 61.7061477 45.212302 61.5881778 45.8208276 61.4717642 46.4305983 61.3805631 47.0436373 61.3343401 47.3539698 61.2071878 47.4495285 60.884249 47.4666482 59.1833343 47.5572267 59.167771 47.566409 59.4499339 45.9028463 59.9124756 43.1769316 60.4056771 40.4563085 60.8669737 37.7303939 60.9370087 37.3160984 61.1047812 37.1635779 61.5248351 37.1934595 62.0139901 37.2283213 62.5076584 37.2015524 62.9993035 37.2015524L62.9993035 37.2079334zM91.9145268 39.8460242C89.771147 38.8474819 88.2859399 39.0781303 87.0995483 40.5739205 86.3951527 41.4619632 86.1727529 42.4759132 86.3951527 43.5748389 86.6808952 44.9868985 87.9808989 45.7340932 89.4972327 45.3899883 90.0249847 45.2703064 90.5062024 45.0262737 91.0597895 44.7246566 90.9783934 45.4763647 90.9010437 46.1164839 90.8425256 46.758315 90.8051737 47.168564 90.477099 47.2171215 90.190734 47.3145479 86.5689949 48.5466955 83.4525967 45.8318308 84.1518565 42.0557037 84.7789024 38.6685038 88.1177004 36.3956373 91.2681823 37.1885882 91.9408288 37.357917 92.3359813 37.6182913 92.1271217 38.4037718 92.0040158 38.8666248 91.9830054 39.356558 91.9145268 39.8460242M183.107569 91.1924979C183.50708 90.1614283 183.886358 89.3108931 184.161206 88.4279862 184.338939 87.8565013 184.726932 87.9298045 185.130489 87.9411657 185.673182 87.9565734 185.454984 88.3825414 185.460743 88.6370016 185.484243 89.6716507 185.470548 90.7070781 185.470392 91.7421942 185.470392 92.0038135 185.503542 92.263254 185.098896 92.2683899 184.675106 92.273837 184.743429 91.9929192 184.742651 91.7439062 184.739539 90.82676 184.741406 89.9097695 184.611453 88.9669438 184.237155 89.9144385 183.865503 90.8630225 183.486069 91.8083383 183.413233 91.9898065 183.392222 92.2357069 183.125156 92.2545385 182.806731 92.2771053 182.777316 92.0083269 182.693896 91.7975996 182.333761 90.8893245 181.972692 89.9813607 181.446341 89.0771321 181.446341 89.9223758 181.455523 90.767775 181.44105 91.6125518 181.436381 91.8850654 181.59357 92.2803736 181.053523 92.2641878 180.564835 92.2494026 180.719846 91.8883337 180.716577 91.6424333 180.702415 90.6074729 180.701792 89.5720455 180.717667 88.5370851 180.720935 88.3182649 180.561255 87.9433446 180.989869 87.9533051 181.331951 87.9609311 181.7643 87.7312166 181.964911 88.2952312 182.29283 89.2165794 182.679578 90.1170728 183.107569 91.1924979M177.773025 90.3675177C177.773025 90.1351574 177.756372 89.9012408 177.776138 89.6704368 177.837302 88.9539018 177.867495 88.2814109 176.799851 88.5232648 176.589435 88.5710442 176.461193 88.4754855 176.45061 88.236433 176.439716 87.98991 176.561577 87.9338821 176.77993 87.9355941 177.683692 87.9424419 178.587454 87.9394849 179.491215 87.9380842 179.688558 87.9376173 179.853529 87.9620517 179.849327 88.2202471 179.845436 88.4555644 179.710191 88.5655971 179.503666 88.5213973 178.405985 88.2857687 178.459056 88.9820714 178.497186 89.7135472 178.528157 90.305887 178.533604 90.903207 178.489872 91.4939904 178.470106 91.7615238 178.756471 92.2449204 178.161797 92.2539471 177.514674 92.2635964 177.824229 91.7439373 177.784386 91.4504132 177.73614 91.0955696 177.773025 90.7288979 177.773025 90.3675177"/>
      <path fill="#FEFEFE" d="M63.0536195,41.639743 C62.4930289,41.758958 62.2441715,41.4999844 62.4788663,40.7973007 C62.5432984,40.60416 62.5694448,40.3929658 62.5803391,40.1883082 C62.6180023,39.4901379 62.8754196,39.132026 63.6713275,39.2395685 C64.2971284,39.324233 64.8827759,39.3268787 64.922618,40.1573372 C64.9610594,40.9604043 64.5226408,41.5052759 63.7438525,41.6036361 C63.5651857,41.6260473 63.3834062,41.6234015 63.0536195,41.639743"/>
    </g>
  </g>
</svg>
