<svg xmlns="http://www.w3.org/2000/svg" width="500" height="500" viewBox="0 0 500 500">
  <defs>
    <linearGradient id="jupyter-r-icon-a" x1="0%" y1="0%" y2="100%">
      <stop offset="0%" stop-color="#FFF"/>
      <stop offset="100%" stop-color="#F7F7F7"/>
    </linearGradient>
    <linearGradient id="jupyter-r-icon-b" x1="83.232%" x2="64.236%" y1="81.793%" y2="39.962%">
      <stop offset="0%" stop-color="#FFF"/>
      <stop offset="100%" stop-color="#EEE"/>
    </linearGradient>
  </defs>
  <g fill="none" fill-rule="evenodd">
    <rect width="500" height="500" fill="url(#jupyter-r-icon-a)"/>
    <g transform="translate(90 62.5)">
      <path fill="#9E9E9E" d="M46.4135934,374.487761 C44.1488644,373.043853 41.4168204,373.15639 38.9683444,372.176618 C28.2086562,367.869691 21.0336233,357.866608 20.8740368,346.506086 C20.7023701,334.277694 27.2797485,324.073061 38.3071097,319.459677 C48.8938596,315.03004 61.6798509,317.37043 69.4105753,325.593265 C76.9302132,333.591663 79.5395473,343.100727 76.2766081,353.748514 C72.8222923,365.020023 64.8951049,371.463883 53.4710029,373.805545 C52.7862434,373.945421 51.9393543,373.633878 51.5000146,374.487761 L46.4135934,374.487761 Z"/>
      <path fill="#767677" d="M272.759337,0 C273.102034,0.192648203 273.423115,0.483845817 273.791244,0.56395695 C285.142229,3.03913667 292.748972,13.147763 291.731052,24.4326242 C290.714404,35.7079484 281.439315,44.7414325 270.465997,45.1445313 C258.432796,45.58705 248.630626,37.5257082 246.817317,25.6959641 C245.151514,14.826282 252.263603,4.12000117 263.197501,0.924457053 C264.053291,0.674586611 265.164674,0.989944726 265.765508,0 L272.759337,0 Z"/>
      <path fill="#F4770E" d="M298.849626 127.13478C295.078044 123.621335 291.438074 119.953389 287.513264 116.621147 269.876735 101.645452 249.480186 91.8591773 227.477599 85.2468298 200.223283 77.0551484 172.361775 74.3205612 143.985267 76.138321 118.420278 77.7755128 93.7454131 83.1156193 70.2385175 93.4111716 52.7196113 101.084038 36.7984771 111.160238 23.5502573 125.145989 22.948788 125.781156 22.5049978 126.838496 21.0401084 126.25165 37.2282797 87.2318057 64.321738 58.9551186 103.36765 42.6760276 178.990653 11.14721 266.538135 47.6817018 297.829798 123.60989 298.297749 124.745434 299.132558 125.826934 298.793039 127.197089L298.849626 127.13478zM21.6778185 230.731192C29.4072713 238.605608 37.6924156 245.797172 47.0215479 251.758457 66.7079054 264.337177 88.1967633 272.429037 110.983295 277.036063 151.931528 285.316121 192.474756 283.717078 232.346576 270.860512 254.964619 263.567856 275.628841 252.685458 292.953828 236.091644 294.84089 234.284057 296.546748 232.288909 298.505656 230.200933 299.097589 231.869915 298.365144 232.790557 297.960774 233.705477 275.637107 284.182485 237.533454 315.226821 182.999389 324.184009 114.923999 335.366506 48.9702831 297.925359 22.3930965 234.395323 21.9448556 233.325267 21.6123308 232.20689 21.2270344 231.111402 21.3929789 231.003316 21.5436641 230.876791 21.6778185 230.731192"/>
      <path fill="#626363" d="M26.2439624,68.19047 C17.1818672,68.0346983 10.0449825,60.6740111 10.1842233,51.6265394 C10.323464,42.5428269 17.8837934,35.3906829 27.1321787,35.5922323 C35.894175,35.7836089 43.1582203,43.3992531 42.9191585,52.1440827 C42.6731029,61.1165297 35.1623662,68.3436984 26.2439624,68.19047"/>
      <g fill="#515151" transform="translate(0 141.148)">
        <path d="M0 76.296318C7.85407013 76.2454538 12.1400158 72.5355453 12.7440283 64.878574 13.9863867 49.1386436 13.0180593 33.3643799 13.3060779 17.6079186 13.3931828 12.8171456 12.6537443 13.5267014 17.5697704 13.4847384 22.2289322 13.4446828 22.2225742 13.4758372 22.2308397 18.1680607 22.2562718 32.3464598 22.2969631 46.5248589 22.3141298 60.703258 22.3293891 73.0301998 15.9980663 80.8810909 4.87787793 82.8991285 1.69187085 83.4770731.588753254 82.594579.622450794 79.5732448.629444623 78.8840348.771228614 78.0581271 0 77.5679233L0 76.296318zM319.808733 20.9814874C308.939687 21.0310801 304.294512 25.6883345 304.071346 37.0539426 303.926383 44.4540497 303.942278 51.8611505 304.09487 59.2606218 304.144463 61.6843015 303.583049 62.517203 301.008049 62.4351844 295.263572 62.252709 295.249584 62.4014869 295.260393 56.5438371 295.284553 42.9173147 295.349405 29.2914281 295.30172 15.6655415 295.295997 14.1580534 295.817356 13.8446027 297.09977 13.8910163 298.578011 13.9444237 300.065153 13.9806645 301.53958 13.8833867 303.015913 13.7861089 303.316012 14.494393 303.274685 15.7812576 303.204111 17.9989372 303.254975 20.2197959 303.254975 23.2430375 304.121574 21.7342778 304.62958 20.8276232 305.157932 19.9330489 308.340125 14.5439856 315.087262 11.5150218 319.808733 13.3518556L319.808733 20.9814874zM105.584821 38.8401666C105.584821 40.533309 105.494537 42.2309021 105.600716 43.9170508 105.974568 49.8465463 109.994749 54.62206 115.850491 56.1956715 121.643925 57.753388 127.671334 55.6177269 130.776594 50.5204971 134.895324 43.7593717 135.215132 36.5213943 132.469101 29.1969478 130.402106 23.6858104 126.414352 20.0719082 120.406653 19.9644575 114.723213 19.8620933 110.370508 22.7855139 107.485235 27.7536758 105.475463 31.2156212 105.399803 35.0062766 105.584821 38.8401666M105.546037 56.3845049C105.546037 64.5850875 105.431593 72.183565 105.612161 79.7750486 105.671291 82.2483209 104.889253 82.7385247 102.592734 82.6870247 96.6975719 82.5554136 96.7077448 82.6679507 96.6924855 76.6558008 96.6422571 56.4385481 96.6002941 36.2212955 96.4877571 16.0046786 96.4801274 14.5887461 96.5704114 13.9847336 98.240665 13.9103447 104.093864 13.6477582 104.088142 13.5689187 104.631753 19.3547228 104.690247 19.9701797 104.784346 20.5824577 104.920408 21.6658654 108.110229 17.5267902 111.759737 14.6192646 116.532071 13.4188692 127.238352 10.7268808 137.229991 16.0593577 141.08677 26.7115952 143.979036 34.6991839 143.716449 42.7509887 140.412819 50.5580094 136.213342 60.4828888 125.462555 65.720631 115.390806 62.9949451 111.862737 62.0399695 109.896835 60.7518333 105.546037 56.3845049M260.957886 33.0940366C264.03072 33.0940366 267.10419 33.0946724 270.177024 33.0940366 274.387309 33.092765 274.710297 32.6858513 273.744513 28.6148069 272.249105 22.3089162 266.565665 18.22452 260.361503 18.9970202 254.123007 19.7733352 248.044734 26.1300901 248.012308 31.7372337 248.003407 33.3248329 248.914512 33.0876785 249.831975 33.0895859 253.540612 33.0984872 257.249249 33.0934008 260.957886 33.0940366zM264.920844 40.0598904C260.155503 40.0598904 255.381261 40.2385509 250.629272 39.9905879 247.950635 39.8507113 247.708394 40.9652734 247.956993 43.1111073 248.789259 50.2956773 255.250286 56.3205432 262.582362 56.6022037 267.05269 56.7738705 271.454352 56.3866666 275.726946 54.9306786 276.723248 54.59116 278.32102 53.688956 278.327378 55.6580368 278.334372 57.5317472 281.327095 59.968143 277.888675 61.3046001 271.030271 63.9711565 263.804374 64.6616381 256.66749 63.1242673 244.480424 60.4990382 237.685601 49.6217264 239.246497 36.0804016 239.797738 31.2940793 241.073158 26.7468187 243.768325 22.6846756 248.80579 15.0931919 257.973428 11.497728 267.116906 13.514494 274.993229 15.2521426 280.393737 21.7939161 281.674879 31.1484805 282.895621 40.0598904 282.895621 40.0598904 274.132988 40.0598904L264.920844 40.0598904zM172.640574 52.0451518C175.625032 43.2113098 178.386323 35.0253507 181.156515 26.8419348 182.375985 23.2401128 183.707991 19.6726241 184.797757 16.0326539 185.277788 14.4278881 186.011504 13.9167027 187.681758 13.8880916 195.055797 13.7615669 195.093309 13.7176965 192.386697 20.597717 186.972202 34.3583937 182.10704 48.3390582 176.037668 61.8371484 173.388914 67.7291316 170.511907 73.5181147 165.726221 78.0730049 162.853664 80.8069563 159.604713 82.8784013 155.799434 84.1334758 154.351075 84.6115994 153.607822 84.471087 153.308359 82.94071 153.226976 82.5261667 153.169118 82.086827 152.983464 81.7174257 151.439735 78.6395051 151.954099 76.7155662 155.529853 75.4267943 158.513675 74.3522878 160.759966 71.9025402 162.875281 69.4960272 166.839511 64.9856432 168.431561 60.591611 165.568541 54.3442142 159.898453 41.9683156 155.23802 29.1314601 150.056864 16.5279442 149.143852 14.3077214 149.399444 13.7024372 151.922945 13.7272335 158.766089 13.7952644 158.81441 13.6719187 161.142719 20.0248588 164.958171 30.4342198 169.200246 40.6897165 172.640574 52.0451518M71.6656401 55.0193095C67.9690835 60.001459 63.6087489 63.0011759 57.92213 63.5435156 46.8865034 64.5964048 39.4914828 58.1582671 38.9281617 46.3507761 38.4449517 36.2001868 38.7851061 26.0114494 38.6814703 15.8405144 38.6649394 14.2268473 39.3160013 13.9846064 40.7338412 13.9273842 47.6412012 13.6482668 47.635479 13.6056681 47.6405654 20.5136639 47.6462876 27.613672 47.6323 34.7130444 47.6946086 41.811781 47.7085963 43.3885716 47.9006087 44.9831646 48.1968927 46.5345231 49.3534177 52.5784631 52.4974618 55.668464 57.6525497 55.9469455 63.6608848 56.2731123 68.8903616 52.7170681 70.5116583 47.1811344 71.021572 45.4403067 71.1582696 43.6537013 71.1525474 41.8384847 71.1290227 33.361328 71.2059548 24.8835355 71.0978684 16.4076503 71.0705288 14.2859769 71.5244919 13.4670631 73.8528012 13.4944026 80.0684079 13.5681557 80.0684079 13.4518038 80.0703153 19.5803056 80.0741302 33.1387971 80.039161 46.6972886 80.1300808 60.2551443 80.1427968 62.0646386 79.6951918 62.5770956 77.8844258 62.5999845 72.3809181 62.6699227 72.3821897 62.7506697 71.6656401 55.0193095M218.678854 6.91562542C218.679489 13.9399731 218.679489 13.9399731 225.727997 13.9399731 226.68043 13.9399731 227.653844 14.0677694 228.580844 13.9151768 231.046487 13.5101705 231.392363 14.6158313 231.54432 16.8729307 231.759857 20.0754687 230.626857 20.7551417 227.66656 20.6012775 224.766028 20.4505922 220.859021 19.2241289 219.178594 21.1639628 217.739773 22.8234077 218.701107 26.6051619 218.689662 29.4484713 218.665502 35.5858743 218.623539 41.7245489 218.726539 47.8600445 218.837804 54.4488673 221.189002 56.5012383 227.78927 56.0701641 229.050702 55.9881455 230.892622 55.2576083 230.620499 57.6202509 230.406233 59.4850601 232.45924 62.2317276 228.7239 62.967987 225.889491 63.5268576 223.044274 63.8466663 220.214317 63.3577341 213.864556 62.2622461 209.838653 56.8388495 209.802413 49.4050449 209.762357 41.1523265 209.817672 32.8983365 209.827845 24.6449823 209.832295 20.4620367 209.817672 20.2827403 205.648714 20.5154441 202.908405 20.6680367 202.176596 19.9400427 202.081861 17.0948258 201.97441 13.8687632 203.426584 13.5553125 205.80385 13.9062756 208.973326 14.3742263 210.595259 13.3747445 209.934024 9.91915714 209.85582 9.51097184 209.923215 9.07481122 209.923215 8.65136666 209.923215 1.74400667 209.936567 1.80695113 216.677347.363679116 218.217897.0336975404 218.805378.13924078 218.701107 1.83810546 218.597471 3.52488989 218.678218 5.22248297 218.678854 6.91562542"/>
      </g>
    </g>
    <polygon fill="url(#jupyter-r-icon-b)" points="500 315.133 500 500 0 500"/>
    <g transform="translate(345.516 373.737)">
      <path fill="#AFB1B5" d="M0,41.9641477 L0,41.8341707 C0.157521785,41.8328796 0.124812343,41.7102192 0.126103505,41.6224202 C0.133850478,41.1679311 0.204864398,40.7198978 0.254789335,40.2692822 C0.466109543,38.3639572 0.887889185,36.5033925 1.4745072,34.6819931 C2.16613973,32.5352208 3.07554829,30.4831337 4.1842262,28.5166937 C5.73146887,25.7699614 7.60494518,23.2633853 9.74999593,20.9621039 C10.8707247,19.7591711 12.0452519,18.6065937 13.288641,17.5254606 C14.8156555,16.1977155 16.4020634,14.9483009 18.0629284,13.7927108 C21.823223,11.1763858 25.83056,9.00938531 30.0427614,7.2142395 C33.7466752,5.63557856 37.5525909,4.36163189 41.4493183,3.35366462 C44.5532722,2.55056175 47.691657,1.92477848 50.8640425,1.45866894 C52.8390902,1.16858784 54.8205938,0.939621749 56.8081227,0.771770667 C58.0885252,0.663313045 59.37151,0.566045495 60.6579379,0.553994648 C60.7504712,0.553133873 60.8920687,0.608653847 60.9036891,0.43004308 L61.0986546,0.43004308 C61.7055008,0.558728909 62.3119167,0.522576369 62.9183325,0.43004308 L63.0487399,0.43004308 C63.0702593,0.478246467 63.0917786,0.475664143 63.1137284,0.43004308 L66.6235375,0.43004308 C66.6674371,0.491158089 66.7337167,0.489866927 66.7978444,0.490297314 C67.3035496,0.495031576 67.8092548,0.499765837 68.3145296,0.503208936 C68.3868347,0.503639323 68.4694691,0.522145981 68.5086343,0.43004308 L68.6381809,0.43004308 C68.6420544,0.587564864 68.7651452,0.551842711 68.8525138,0.553564261 C70.2904381,0.581539441 71.722337,0.697744036 73.1550966,0.813087857 C74.3068132,0.905621146 75.454226,1.03559814 76.6016388,1.16342319 C78.3645055,1.35967984 80.109296,1.68160961 81.8540865,1.9923493 C83.6668782,2.31470946 85.4633151,2.72056477 87.2550178,3.14148364 C89.1168737,3.57875722 90.9533367,4.11329836 92.7730146,4.7024987 C96.3336094,5.85507613 99.8141523,7.20864447 103.151806,8.91168737 C104.070684,9.38080962 104.979662,9.87016009 105.895096,10.3461685 C106.689591,10.7597708 107.471174,11.1970444 108.233821,11.6661667 C111.086859,13.4204257 113.808198,15.3545866 116.319939,17.5779678 C118.229138,19.2676687 120.016967,21.0748654 121.626616,23.0507739 C123.783287,25.6980867 125.590914,28.563606 126.954381,31.7037124 C128.3979,35.0275942 129.265561,38.4926431 129.466983,42.1096187 C129.593517,44.3824945 129.483768,46.652788 129.079634,48.8994101 C128.495168,52.1479742 127.418769,55.2265352 125.887881,58.1514479 C124.187851,61.3974295 122.030749,64.3102914 119.521591,66.9683639 C117.644671,68.9558929 115.609369,70.7699757 113.429027,72.4196506 C112.263968,73.3015144 111.08772,74.1670234 109.838305,74.9279483 C109.743189,74.7854901 109.635593,74.6494877 109.55468,74.4997129 C109.058873,73.5756711 108.503243,72.6985416 107.740166,71.9625792 C107.280082,71.5197106 106.768352,71.1474255 106.263938,70.7626592 C106.704224,70.5311107 107.146662,70.302575 107.584797,70.0675835 C110.790752,68.3503378 113.667462,66.2087302 116.062137,63.4538205 C117.635633,61.6444719 118.912593,59.6444617 119.860306,57.4387263 C121.348585,53.975399 121.954571,50.3515372 121.88657,46.5938249 C121.856873,44.9562009 121.713984,43.3357924 121.411852,41.7282955 C120.90959,39.0577417 119.988131,36.541697 118.614765,34.1939338 C116.649616,30.8343298 113.970024,28.1517252 110.779562,25.9597623 C107.752217,23.8797 104.452437,22.3488121 100.988679,21.1613733 C98.1911614,20.2024702 95.332098,19.482432 92.4244008,18.9397136 C91.0398446,18.6810507 89.6522756,18.44692 88.2591116,18.2528153 C86.3662679,17.9889878 84.4635252,17.7957439 82.5569091,17.6705011 C80.6589007,17.5456888 78.7570188,17.4587505 76.855137,17.4131295 C74.7677581,17.3632045 72.6799489,17.4200157 70.5930004,17.5185744 C69.3758649,17.5762463 68.1630332,17.6661973 66.9497712,17.7768068 C65.4911883,17.9093661 64.0390613,18.0849642 62.5912381,18.3027402 C60.49353,18.6186446 58.4126069,19.0193352 56.3497602,19.5151415 C53.407632,20.2218376 50.5339354,21.1420058 47.7174803,22.2493926 C45.1136366,23.2724234 42.6014654,24.4787993 40.1921568,25.8999384 C37.7905951,27.3172041 35.5345044,28.9367518 33.4806958,30.8261525 C32.3091813,31.9038425 31.2125543,33.0577111 30.2299799,34.3148727 C28.5011137,36.5274942 27.1079497,38.9230304 26.2777325,41.6206986 C25.6967095,43.5083777 25.4135146,45.435222 25.4716169,47.4158648 C25.501744,48.4388956 25.5908342,49.4468629 25.7918251,50.4531086 C26.1176284,52.0847072 26.6254855,53.6521781 27.3360551,55.1529389 C28.893627,58.4428201 31.1596166,61.1951475 33.8555632,63.6044561 C35.8207121,65.3612974 37.9683451,66.8732483 40.2403602,68.2121835 C41.8160084,69.1413899 43.4114545,70.0301398 45.0860918,70.7652415 C46.6354864,71.4452536 48.2111346,72.0654418 49.8083022,72.6258062 C50.9802471,73.0363957 52.1517616,73.4534411 53.3611501,73.7495476 C53.3620109,76.5393187 53.3645932,79.3290898 53.3637325,82.1192912 C53.3633021,83.5787348 53.357707,85.0386089 53.3542639,86.4989133 C52.5412622,86.390886 51.7273996,86.2863019 50.9148282,86.1744012 C48.3032375,85.8124454 45.7191916,85.3084618 43.1549436,84.699894 C40.1155478,83.9785647 37.1234947,83.0949794 34.1813665,82.0444038 C31.9278581,81.2395794 29.7143758,80.3357659 27.5555526,79.3045577 C24.9091006,78.0396491 22.333232,76.6447636 19.8675427,75.0488872 C17.0807843,73.2459944 14.4515478,71.2408195 12.0336314,68.9679437 C9.54211882,66.6257756 7.31701601,64.0537805 5.44052699,61.1843878 C3.84766326,58.7496863 2.56037458,56.1699443 1.62729472,53.4158954 C0.813001779,51.0126122 0.287498776,48.548214 0.126103505,46.0110804 C0.120938857,45.9232813 0.157521785,45.8006209 0,45.7993298 L0,45.6689224 C0.126103505,45.1059757 0.083925541,44.5425986 0,43.9792215 L0,43.5892905 C0.132559316,43.1610551 0.0340006038,42.7207688 0.0654188832,42.2865079 C0.0727354689,42.181063 0.131698541,42.0485037 0,41.9641477"/>
      <path fill="#1B65BC" d="M82.774556,43.1943671 L82.774556,43.190924 C80.5219084,43.190924 78.2688304,43.1969494 76.0157524,43.1844681 C75.7209371,43.1827466 75.6443281,43.2567732 75.6451889,43.5537405 C75.654227,47.4422906 75.6520751,51.3304103 75.640885,55.2185299 C75.6400242,55.5111934 75.7080255,55.5964101 76.0114486,55.5955493 C80.1922317,55.5847896 84.3730148,55.5860808 88.5537979,55.5899543 C89.4821435,55.590815 90.3881089,55.4625596 91.2622257,55.1483768 C93.0849163,54.4933272 94.3795216,53.3045972 94.9209489,51.4070192 C95.3496148,49.9045368 95.3311081,48.3912948 94.8546693,46.8974202 C94.4260034,45.5524596 93.5669502,44.5604166 92.3072063,43.9243041 C91.3044037,43.4181685 90.2318783,43.1943671 89.1107192,43.1943671 L82.774556,43.1943671 Z M75.4536665,100.2689 C68.5179737,100.271482 61.5814202,100.274064 54.6457274,100.275355 C54.2235173,100.275786 53.8017377,100.268039 53.3799581,100.264596 C53.3769453,98.9441672 53.3722111,97.6237387 53.3717807,96.3033102 C53.3704895,93.1640646 53.3717807,90.0256797 53.3709199,86.8868645 C53.3709199,86.7573179 53.3601602,86.6277713 53.3541348,86.4982247 C53.3575779,85.038781 53.363173,83.578907 53.3636033,82.119033 C53.3644641,79.3292619 53.3623122,76.5394909 53.361021,73.7492894 C53.3648945,73.6085527 53.3717807,73.4682464 53.3717807,73.3275098 C53.3726415,58.1619493 53.3726415,42.9963889 53.3739326,27.8312588 C53.374363,27.325984 53.3033491,27.3823647 53.8215355,27.3823647 C67.9795591,27.3806432 82.1375827,27.3845167 96.2956062,27.373757 C97.936243,27.3724658 99.5592338,27.4792019 101.171895,27.7864985 C104.107998,28.3460021 106.901212,29.292424 109.459005,30.8581733 C114.17562,33.7443511 116.869845,37.9634387 117.666922,43.4164469 C117.799051,44.3202605 117.867913,45.2322513 117.903205,46.1433814 C117.983257,48.1847088 117.824444,50.2109727 117.384588,52.2101221 C116.614195,55.7087412 115.03123,58.7722386 112.480324,61.3080811 C109.618248,64.152081 106.13211,65.8727698 102.279713,66.9233454 C101.137034,67.2349459 99.9758488,67.46176 98.7952962,67.6003448 C98.8267145,67.7187013 98.9205389,67.6980427 98.9859578,67.7191317 C101.491243,68.5441843 104.003414,69.3520214 106.263809,70.7628313 C106.768223,71.1471672 107.279953,71.5194523 107.740037,71.9627513 C108.503114,72.6987138 109.058744,73.5758433 109.554981,74.4994546 C109.635463,74.6496598 109.74306,74.7852318 109.838176,74.9276901 C109.849366,75.0766041 109.951798,75.1824794 110.021951,75.3012663 C114.883607,83.5031588 119.746985,91.7046209 124.608641,99.9069438 C124.678794,100.025731 124.779935,100.131176 124.798011,100.277507 C116.590524,100.279229 108.383466,100.28052 100.176409,100.281381 C100.068382,100.281381 99.9603549,100.270191 99.8523276,100.264596 C96.9033132,94.7229277 93.9542988,89.1812596 91.0044237,83.6404524 C90.9747269,83.5849324 90.9291059,83.5371594 90.8908014,83.4859433 C90.8533577,83.3964227 90.8228002,83.3034591 90.7776095,83.2182424 C90.0442294,81.8358381 89.3086974,80.4542945 88.5744565,79.0723206 C88.0123705,78.0148588 87.3693718,77.0077523 86.694094,76.0204437 C86.6088773,75.8865932 86.5258125,75.7510212 86.4371527,75.6188922 C85.5940238,74.3634522 84.6682605,73.188925 83.3788199,72.3466569 C82.8386837,71.9941696 82.2684204,71.7548742 81.6228393,71.7518615 C79.640475,71.7402411 77.6581107,71.7441146 75.6757464,71.7355068 C75.5023003,71.734646 75.4566792,71.7910268 75.45754,71.9580171 C75.4661477,73.5285007 75.4674389,75.0989843 75.470882,76.6694678 C75.4695908,76.9724606 75.4674389,77.2754533 75.4674389,77.578446 C75.470882,80.5752334 75.4747555,83.5728816 75.4781986,86.5700994 C75.4730339,86.7104056 75.4627046,86.8507119 75.4627046,86.9910182 C75.4627046,91.2871451 75.4635654,95.5841328 75.4635654,99.8802598 C75.4635654,100.010237 75.45754,100.139783 75.4536665,100.2689 Z"/>
    </g>
  </g>
</svg>
