<svg xmlns="http://www.w3.org/2000/svg" width="500" height="500" viewBox="0 0 500 500">
  <defs>
    <linearGradient id="trifacta-icon-a" x1="0%" y1="0%" y2="100%">
      <stop offset="0%" stop-color="#FFF"/>
      <stop offset="100%" stop-color="#F7F7F7"/>
    </linearGradient>
  </defs>
  <g fill="none" fill-rule="evenodd">
    <rect width="500" height="500" fill="url(#trifacta-icon-a)"/>
    <g transform="translate(54.89 56.274)">
      <path fill="#01AA46" d="M150.447523,99.493241 C146.344783,103.729766 142.65585,108.284248 139.558234,113.320298 C135.789667,119.446899 132.76213,125.911437 130.314327,132.669028 C127.10117,141.539958 125.027213,150.675274 123.738881,160.005475 C123.175652,164.08476 122.820629,168.177944 122.541187,172.288792 C122.141569,178.166646 122.125932,184.049422 122.409718,189.909321 C122.878834,199.602942 124.191202,209.201293 126.279348,218.703793 C128.680239,229.631596 132.031525,240.248392 136.357819,250.541151 C139.24549,257.411387 142.707684,264.016371 146.279628,270.571836 C150.453605,278.231462 155.383959,285.361451 160.569141,292.332171 C163.627084,296.44273 166.949412,300.345082 170.393363,304.148109 C173.664435,307.760015 177.075084,311.231765 180.644711,314.533533 C187.996806,321.333402 195.883461,327.447261 204.500143,332.591613 C212.806107,337.550346 221.479545,341.682334 230.74575,344.532939 C236.549471,346.318477 242.448463,347.589724 248.483268,348.298031 C253.130415,348.843886 257.789144,349.043984 262.442662,348.765121 C270.825654,348.261834 278.963373,346.550428 286.763445,343.350592 C295.585726,339.731737 303.396223,334.618948 310.238081,327.954312 C316.426941,321.926168 321.419554,315.059985 325.488993,307.464066 C331.222347,296.761845 334.662533,285.326412 336.700582,273.409411 C337.629548,267.97548 338.24548,262.524755 338.475695,257.013218 C338.544904,255.35828 338.646256,253.682492 338.959001,252.020604 C338.959001,256.598832 338.954946,261.177059 338.961028,265.755286 C338.963634,267.675767 339.215856,269.581769 339.205142,271.50949 C339.129272,284.826021 337.684278,297.971412 334.237432,310.85126 C331.788182,320.00337 328.395776,328.8132 323.870252,337.146674 C319.564518,345.075898 314.386864,352.383687 308.150513,358.951604 C301.603735,365.846744 294.222973,371.59921 285.899923,376.186704 C276.814415,381.194375 267.117319,384.300099 256.891163,385.895094 C250.151526,386.945973 243.364109,387.012865 236.603333,386.629753 C227.957983,386.140077 219.497963,384.408691 211.210532,381.840713 C203.855832,379.561735 196.764357,376.653504 189.934372,373.121811 C179.924821,367.946184 170.645295,361.664949 161.989232,354.450694 C157.111581,350.385599 152.42592,346.112297 148.02781,341.538124 C141.480453,334.728409 135.467367,327.471006 129.975811,319.776921 C123.522277,310.73427 118.053308,301.132445 112.944284,291.272026 C105.739006,277.364466 100.863382,262.665779 97.2749318,247.507243 C95.6923884,240.822046 94.6597534,234.018412 93.9123527,227.168157 C93.0195839,218.982946 92.598248,210.785574 92.8962237,202.571116 C93.1496044,195.595473 93.8440123,188.653132 95.0611084,181.755385 C96.4241518,174.030893 98.3171228,166.469145 100.930853,159.07593 C104.696525,148.424095 109.860279,138.505761 116.659279,129.488304 C120.88509,123.884102 125.731467,118.839364 131.077076,114.248685 C133.877005,111.84403 136.337549,109.038599 139.255336,106.746879 C142.749383,104.002259 146.335806,101.388529 150.285939,99.318336 C150.335167,99.3808848 150.389029,99.4393795 150.447523,99.493241"/>
      <path fill="#01BFE1" d="M308.33567,158.577595 C307.84831,157.091481 307.389329,155.595232 306.868668,154.120991 C304.270864,146.767449 300.310306,140.15928 295.707175,133.916269 C292.221236,129.189199 288.345525,124.787903 284.125216,120.70775 C276.052941,112.902756 267.14813,106.179046 257.515609,100.407178 C252.196062,97.2197935 246.733174,94.3077977 241.07598,91.7760178 C232.841831,88.0908489 224.364437,85.069103 215.667253,82.6624207 C209.375593,80.9214781 203.010959,79.5118127 196.566691,78.4878651 C190.881408,77.5843819 185.170931,76.908507 179.420202,76.4926731 C173.648335,76.0753912 167.877046,75.9039611 162.102862,76.0571478 C149.801012,76.3840813 137.601672,77.6110231 125.551176,80.2511052 C116.212287,82.2969734 107.058149,84.942847 98.216176,88.5431696 C85.0835266,93.8905159 72.8019469,100.734691 61.8706691,109.883037 C54.1542856,116.340625 47.3981426,123.634225 41.8544624,132.039514 C35.5972622,141.527536 31.2165271,151.773093 29.4631326,163.051285 C29.005889,165.990791 28.8214279,168.964467 28.7082029,171.948857 C28.4270227,179.345546 29.2702737,186.611347 31.2037856,193.725118 C34.1209938,204.458614 39.2410215,214.112274 46.0348096,222.891409 C54.4224348,233.730022 64.6674128,242.484253 76.21665,249.781038 C79.1712137,251.647657 82.1674767,253.438986 85.3554403,255.113615 C84.6975192,255.342961 84.3062994,255.018344 83.8945196,254.816798 C78.7162868,252.279226 73.5018568,249.812022 68.3731418,247.177732 C57.1097181,241.393123 46.6223633,234.458021 37.0767159,226.092693 C27.9370568,218.083257 20.0602472,209.018019 13.7616373,198.635202 C7.25163557,187.904022 2.8031392,176.390403 0.955631915,163.903223 C0.334776803,159.705791 -0.0202457566,155.485482 0.000893433337,151.284575 C0.0405656117,143.39763 1.12822037,135.61001 3.16887614,127.958782 C6.16108504,116.739084 11.2976186,106.578084 17.9526989,97.1178621 C22.7912568,90.2400964 28.3731612,84.0231475 34.5585461,78.3604508 C41.2602485,72.2254525 48.5387901,66.8366965 56.3284368,62.1429276 C60.6912181,59.5138495 65.1541934,57.075024 69.7480579,54.8806024 C78.980961,50.4706198 88.5341374,46.9209734 98.3913706,44.1641914 C107.69522,41.5623336 117.151388,39.7310426 126.719623,38.5069967 C130.6185,38.0083434 134.542281,37.609305 138.484885,37.486524 C142.279514,37.3683762 146.070379,37.0622923 149.865008,37.0229097 C160.068287,36.9169242 170.203226,37.7700208 180.307469,39.1985088 C192.028715,40.8560529 203.478627,43.5948811 214.684135,47.3735837 C221.003595,49.5042982 227.151914,52.0577966 233.205541,54.869888 C242.9009,59.3736937 252.024922,64.8325276 260.563707,71.2258294 C269.484445,77.9049447 277.515889,85.5434317 284.45215,94.3138789 C288.934237,99.9809192 292.839196,106.009353 296.10882,112.43364 C299.092631,118.296145 301.404622,124.429695 303.088807,130.808518 C304.678879,136.832898 306.627449,142.760848 307.497341,148.965924 C307.943581,152.148096 308.188274,155.341851 308.33567,158.577595"/>
      <path fill="#F46D0B" d="M212.055955,29.925557 C213.959061,28.292627 216.250202,27.2666523 218.332557,25.9146129 C224.858775,21.6766397 231.48316,17.5973552 238.477915,14.1748335 C249.544426,8.76030507 261.076868,4.63961093 273.177751,2.23119117 C282.70139,0.335903527 292.342598,-0.408022211 302.028981,0.216307836 C313.758625,0.972395848 325.024655,3.67184144 335.705737,8.75132816 C345.954769,13.6255041 354.891145,20.2481517 362.508492,28.591761 C367.2373,33.7711521 371.291391,39.4961081 374.759956,45.6218399 C380.213867,55.2537815 384.093922,65.481964 386.505238,76.2713486 C388.04695,83.1679369 388.996766,90.1432905 389.435766,97.2049382 C389.778047,102.700259 389.822063,108.194421 389.559126,113.675842 C389.154297,122.119066 388.05419,130.495687 386.348865,138.781381 C383.955214,150.4117 380.473329,161.721167 375.902052,172.670977 C371.03164,184.336915 365.103111,195.449179 358.219843,206.074952 C353.089391,213.994619 347.378914,221.445459 341.197872,228.545331 C329.54265,241.933099 316.240308,253.435714 301.248858,262.947191 C291.372802,269.213368 280.925119,274.329052 269.875983,278.216636 C259.917687,281.72024 249.703694,284.109547 239.200123,285.030984 C225.618917,286.222597 212.263293,285.018822 199.202748,280.815019 C194.559656,279.320507 189.764824,278.283529 185.245091,276.397797 C181.891489,274.998556 178.513563,273.634934 175.505137,271.437327 C176.961425,271.752967 178.4125,272.096406 179.875448,272.379324 C187.334396,273.821422 194.83128,273.963894 202.393029,273.286282 C212.400263,272.389459 222.084039,270.130462 231.541655,266.827246 C241.079194,263.495941 250.20698,259.287505 258.929647,254.163713 C269.320862,248.059699 278.907919,240.908282 287.791881,232.776644 C300.930322,220.750762 311.937759,207.007682 321.286203,191.869126 C328.784824,179.725386 334.703797,166.87131 339.214263,153.353522 C342.394119,143.824091 344.734198,134.084716 346.097531,124.130764 C346.834507,118.751854 347.235283,113.34138 347.406134,107.901658 C347.759709,96.6402612 346.664814,85.5511634 343.839402,74.6534767 C340.331745,61.1241055 334.389026,48.8008265 325.013072,38.3293985 C318.130962,30.6434207 309.90608,24.7368994 300.425008,20.5771122 C292.25254,16.9915581 283.742133,14.9578522 274.847747,14.288348 C265.706929,13.60089 256.721326,14.4473263 247.780317,16.3284246 C235.789763,18.8509381 224.651437,23.5588963 213.888694,29.2719796 C213.338206,29.5638741 212.798722,29.8771975 212.254316,30.1803856 C212.188292,30.0955393 212.121979,30.0104033 212.055955,29.925557"/>
    </g>
  </g>
</svg>
