<svg xmlns="http://www.w3.org/2000/svg" width="500" height="500" viewBox="0 0 500 500">
  <defs>
    <linearGradient id="r-studio-icon-a" x1="0%" y1="0%" y2="100%">
      <stop offset="0%" stop-color="#FFF"/>
      <stop offset="100%" stop-color="#F7F7F7"/>
    </linearGradient>
  </defs>
  <g fill="none" fill-rule="evenodd">
    <rect width="500" height="500" fill="url(#r-studio-icon-a)"/>
    <path fill="#75AADB" d="M209.722761,242.334728 C209.722761,262.54382 209.672949,282.752913 209.786661,302.960998 C209.800749,305.466191 209.080739,306.021168 206.711397,305.944688 C201.182765,305.765566 195.64407,305.927581 190.110407,305.861668 C188.607492,305.844058 188.017798,306.289851 188.059057,307.860691 C188.151133,311.380237 188.167737,314.906325 188.054025,318.424866 C187.997672,320.166274 188.718689,320.562255 190.283994,320.503386 C192.879754,320.406278 195.481552,320.477222 198.081337,320.477222 C214.768367,320.477222 231.455396,320.425397 248.141923,320.535588 C250.539441,320.551185 251.154796,319.809539 251.024479,317.555419 C250.84586,314.463552 250.873534,311.348036 251.018945,308.252143 C251.108003,306.346707 250.458937,305.819907 248.59174,305.847077 C241.8007,305.948714 235.006642,305.825945 228.216105,305.928084 C226.384129,305.955255 225.777831,305.516506 225.786385,303.577359 C225.861858,285.968053 225.85431,268.358243 225.793932,250.748936 C225.787894,248.987905 226.288027,248.465633 228.052581,248.488275 C235.17872,248.580855 242.307878,248.589912 249.434016,248.481734 C251.194041,248.455067 252.109275,249.116712 253.042621,250.522014 C268.079816,273.173909 283.187955,295.779009 298.2332,318.425872 C299.205289,319.889541 300.207065,320.554707 302.053632,320.527537 C310.102048,320.410303 318.153483,320.439486 326.202906,320.50892 C327.791859,320.522506 328.453,320.150676 328.396647,318.431407 C328.280419,314.913369 328.29803,311.386778 328.391113,307.867735 C328.431868,306.333122 327.93576,305.829467 326.389072,305.85714 C321.611142,305.941166 316.827175,305.789718 312.051761,305.934122 C310.064312,305.993997 308.870332,305.356504 307.755851,303.701638 C295.609263,285.668174 283.3867,267.686032 271.184262,249.689801 C268.76209,246.117927 268.761083,246.118933 272.653466,244.645705 C273.357878,244.378531 274.060278,244.106326 274.761672,243.831605 C281.475729,241.202637 287.568898,237.52661 292.420791,232.184647 C300.120019,223.708552 303.19478,213.552433 302.894902,202.159063 C302.470241,186.018457 294.894285,174.716158 280.314455,168.087636 C266.37715,161.750439 251.730401,161.94214 236.950317,163.758518 C229.233478,164.706456 221.506073,165.713263 213.737912,165.891882 C205.859561,166.073016 198.048633,165.006838 190.374058,163.172849 C188.564221,162.741145 187.982074,163.167315 188.054025,165.045077 C188.176291,168.226506 188.116919,171.416992 188.072139,174.602949 C188.055535,175.758185 188.248242,176.452032 189.63845,176.597946 C195.456394,177.209778 201.258238,177.979601 207.077692,178.584892 C209.099356,178.79521 209.795214,179.522264 209.784145,181.708458 C209.680496,201.916544 209.722761,222.125636 209.722761,242.334728 Z M259.534286,74.9401496 C262.00627,76.1663305 264.738888,75.5736177 267.306975,75.8171432 C286.03026,77.5902501 303.862462,82.4834014 321.045096,90.0422509 C334.182893,95.8219556 346.259543,103.329484 357.64939,111.980173 C365.5851,118.007428 372.717277,124.966017 379.428316,132.284863 C391.969374,145.962542 401.881968,161.43295 409.556039,178.331807 C414.94882,190.207196 418.851769,202.591774 421.407277,215.34466 C422.769309,222.14224 423.630704,229.053533 424.170083,236.014639 C424.813111,244.304568 424.769337,252.591478 424.438766,260.838639 C424.081528,269.747445 422.661634,278.596375 420.791419,287.360777 C417.270866,303.858621 411.377952,319.468906 403.314441,334.227354 C398.46758,343.097921 392.804103,351.47087 386.474453,359.401045 C380.831103,366.471837 374.690638,373.074195 368.050041,379.15881 C358.805633,387.630377 348.737062,395.042306 337.868983,401.380509 C327.36418,407.506383 316.346162,412.457396 304.834552,416.271287 C295.177056,419.471332 285.295155,421.811995 275.180294,423.173523 C269.825249,423.89454 264.497878,424.71669 259.077927,424.638701 C258.655783,424.632664 258.238167,424.676438 258.02483,425.133803 L241.420821,425.133803 C238.601158,423.904603 235.552058,424.542096 232.642331,424.27291 C223.961453,423.46837 215.402841,422.028853 206.991149,419.915112 C192.40025,416.248142 178.489613,410.780894 165.270305,403.498275 C153.36825,396.940698 142.325577,389.178072 132.324429,380.062471 C122.219631,370.853283 113.059249,360.724838 105.376121,349.323921 C98.8245817,339.601519 93.0730535,329.465023 88.5150013,318.656316 C81.9835878,303.166787 77.714848,287.103163 75.7691599,270.386448 C75.5090305,268.150441 76.0071507,265.754432 74.8775749,263.622075 L74.8775749,236.451878 C76.0071507,234.319017 75.4884012,231.923511 75.7570843,229.684989 C76.6451472,222.28111 77.8990015,214.953711 79.7113543,207.743042 C83.3385756,193.313655 88.6151286,179.522264 95.7568652,166.416166 C102.25809,154.485933 109.884865,143.34414 119.001472,133.345004 C128.944255,122.439692 139.85158,112.533136 152.265844,104.377549 C162.846623,97.4265067 173.956718,91.5577441 185.747577,86.9579304 C200.62477,81.1545775 215.963856,77.3718823 231.889113,75.8272062 C234.545252,75.5700957 237.344788,76.104946 239.911365,74.9401496 L259.534286,74.9401496 Z M225.83514,206.693467 C225.83514,215.246545 225.87187,223.800126 225.803442,232.3527 C225.79036,233.982409 226.256278,234.626443 227.931774,234.507699 C229.599219,234.389458 231.296853,234.359772 232.95826,234.524303 C242.271097,235.449096 251.50343,234.819653 260.621043,232.886544 C267.848316,231.354447 274.545769,228.512142 279.678421,222.956843 C290.717571,211.007491 289.138178,183.908238 265.425137,178.509419 C256.348278,176.442472 247.296074,177.272169 238.209153,177.784378 C235.044328,177.962996 231.892585,178.362499 228.730779,178.615081 C226.739304,178.774077 225.704321,179.348677 225.761177,181.789969 C225.954891,190.087445 225.83514,198.391463 225.83514,206.693467 Z"/>
  </g>
</svg>
