<svg xmlns="http://www.w3.org/2000/svg" width="500" height="500" viewBox="0 0 500 500">
  <defs>
    <linearGradient id="jupyter-haskell-icon-a" x1="0%" y1="0%" y2="100%">
      <stop offset="0%" stop-color="#FFF"/>
      <stop offset="100%" stop-color="#F7F7F7"/>
    </linearGradient>
    <linearGradient id="jupyter-haskell-icon-b" x1="83.232%" x2="64.236%" y1="81.793%" y2="39.962%">
      <stop offset="0%" stop-color="#FFF"/>
      <stop offset="100%" stop-color="#EEE"/>
    </linearGradient>
  </defs>
  <g fill="none" fill-rule="evenodd">
    <rect width="500" height="500" fill="url(#jupyter-haskell-icon-a)"/>
    <polygon fill="url(#jupyter-haskell-icon-b)" points="500 315.133 500 500 0 500"/>
    <g transform="translate(90 62.5)">
      <path fill="#9E9E9E" d="M46.4135934,374.487761 C44.1488644,373.043853 41.4168204,373.15639 38.9683444,372.176618 C28.2086562,367.869691 21.0336233,357.866608 20.8740368,346.506086 C20.7023701,334.277694 27.2797485,324.073061 38.3071097,319.459677 C48.8938596,315.03004 61.6798509,317.37043 69.4105753,325.593265 C76.9302132,333.591663 79.5395473,343.100727 76.2766081,353.748514 C72.8222923,365.020023 64.8951049,371.463883 53.4710029,373.805545 C52.7862434,373.945421 51.9393543,373.633878 51.5000146,374.487761 L46.4135934,374.487761 Z"/>
      <path fill="#767677" d="M272.759337,0 C273.102034,0.192648203 273.423115,0.483845817 273.791244,0.56395695 C285.142229,3.03913667 292.748972,13.147763 291.731052,24.4326242 C290.714404,35.7079484 281.439315,44.7414325 270.465997,45.1445313 C258.432796,45.58705 248.630626,37.5257082 246.817317,25.6959641 C245.151514,14.826282 252.263603,4.12000117 263.197501,0.924457053 C264.053291,0.674586611 265.164674,0.989944726 265.765508,0 L272.759337,0 Z"/>
      <path fill="#F4770E" d="M298.849626 127.13478C295.078044 123.621335 291.438074 119.953389 287.513264 116.621147 269.876735 101.645452 249.480186 91.8591773 227.477599 85.2468298 200.223283 77.0551484 172.361775 74.3205612 143.985267 76.138321 118.420278 77.7755128 93.7454131 83.1156193 70.2385175 93.4111716 52.7196113 101.084038 36.7984771 111.160238 23.5502573 125.145989 22.948788 125.781156 22.5049978 126.838496 21.0401084 126.25165 37.2282797 87.2318057 64.321738 58.9551186 103.36765 42.6760276 178.990653 11.14721 266.538135 47.6817018 297.829798 123.60989 298.297749 124.745434 299.132558 125.826934 298.793039 127.197089L298.849626 127.13478zM21.6778185 230.731192C29.4072713 238.605608 37.6924156 245.797172 47.0215479 251.758457 66.7079054 264.337177 88.1967633 272.429037 110.983295 277.036063 151.931528 285.316121 192.474756 283.717078 232.346576 270.860512 254.964619 263.567856 275.628841 252.685458 292.953828 236.091644 294.84089 234.284057 296.546748 232.288909 298.505656 230.200933 299.097589 231.869915 298.365144 232.790557 297.960774 233.705477 275.637107 284.182485 237.533454 315.226821 182.999389 324.184009 114.923999 335.366506 48.9702831 297.925359 22.3930965 234.395323 21.9448556 233.325267 21.6123308 232.20689 21.2270344 231.111402 21.3929789 231.003316 21.5436641 230.876791 21.6778185 230.731192"/>
      <path fill="#626363" d="M26.2439624,68.19047 C17.1818672,68.0346983 10.0449825,60.6740111 10.1842233,51.6265394 C10.323464,42.5428269 17.8837934,35.3906829 27.1321787,35.5922323 C35.894175,35.7836089 43.1582203,43.3992531 42.9191585,52.1440827 C42.6731029,61.1165297 35.1623662,68.3436984 26.2439624,68.19047"/>
      <g fill="#515151" transform="translate(0 141.148)">
        <path d="M0 76.296318C7.85407013 76.2454538 12.1400158 72.5355453 12.7440283 64.878574 13.9863867 49.1386436 13.0180593 33.3643799 13.3060779 17.6079186 13.3931828 12.8171456 12.6537443 13.5267014 17.5697704 13.4847384 22.2289322 13.4446828 22.2225742 13.4758372 22.2308397 18.1680607 22.2562718 32.3464598 22.2969631 46.5248589 22.3141298 60.703258 22.3293891 73.0301998 15.9980663 80.8810909 4.87787793 82.8991285 1.69187085 83.4770731.588753254 82.594579.622450794 79.5732448.629444623 78.8840348.771228614 78.0581271 0 77.5679233L0 76.296318zM319.808733 20.9814874C308.939687 21.0310801 304.294512 25.6883345 304.071346 37.0539426 303.926383 44.4540497 303.942278 51.8611505 304.09487 59.2606218 304.144463 61.6843015 303.583049 62.517203 301.008049 62.4351844 295.263572 62.252709 295.249584 62.4014869 295.260393 56.5438371 295.284553 42.9173147 295.349405 29.2914281 295.30172 15.6655415 295.295997 14.1580534 295.817356 13.8446027 297.09977 13.8910163 298.578011 13.9444237 300.065153 13.9806645 301.53958 13.8833867 303.015913 13.7861089 303.316012 14.494393 303.274685 15.7812576 303.204111 17.9989372 303.254975 20.2197959 303.254975 23.2430375 304.121574 21.7342778 304.62958 20.8276232 305.157932 19.9330489 308.340125 14.5439856 315.087262 11.5150218 319.808733 13.3518556L319.808733 20.9814874zM105.584821 38.8401666C105.584821 40.533309 105.494537 42.2309021 105.600716 43.9170508 105.974568 49.8465463 109.994749 54.62206 115.850491 56.1956715 121.643925 57.753388 127.671334 55.6177269 130.776594 50.5204971 134.895324 43.7593717 135.215132 36.5213943 132.469101 29.1969478 130.402106 23.6858104 126.414352 20.0719082 120.406653 19.9644575 114.723213 19.8620933 110.370508 22.7855139 107.485235 27.7536758 105.475463 31.2156212 105.399803 35.0062766 105.584821 38.8401666M105.546037 56.3845049C105.546037 64.5850875 105.431593 72.183565 105.612161 79.7750486 105.671291 82.2483209 104.889253 82.7385247 102.592734 82.6870247 96.6975719 82.5554136 96.7077448 82.6679507 96.6924855 76.6558008 96.6422571 56.4385481 96.6002941 36.2212955 96.4877571 16.0046786 96.4801274 14.5887461 96.5704114 13.9847336 98.240665 13.9103447 104.093864 13.6477582 104.088142 13.5689187 104.631753 19.3547228 104.690247 19.9701797 104.784346 20.5824577 104.920408 21.6658654 108.110229 17.5267902 111.759737 14.6192646 116.532071 13.4188692 127.238352 10.7268808 137.229991 16.0593577 141.08677 26.7115952 143.979036 34.6991839 143.716449 42.7509887 140.412819 50.5580094 136.213342 60.4828888 125.462555 65.720631 115.390806 62.9949451 111.862737 62.0399695 109.896835 60.7518333 105.546037 56.3845049M260.957886 33.0940366C264.03072 33.0940366 267.10419 33.0946724 270.177024 33.0940366 274.387309 33.092765 274.710297 32.6858513 273.744513 28.6148069 272.249105 22.3089162 266.565665 18.22452 260.361503 18.9970202 254.123007 19.7733352 248.044734 26.1300901 248.012308 31.7372337 248.003407 33.3248329 248.914512 33.0876785 249.831975 33.0895859 253.540612 33.0984872 257.249249 33.0934008 260.957886 33.0940366zM264.920844 40.0598904C260.155503 40.0598904 255.381261 40.2385509 250.629272 39.9905879 247.950635 39.8507113 247.708394 40.9652734 247.956993 43.1111073 248.789259 50.2956773 255.250286 56.3205432 262.582362 56.6022037 267.05269 56.7738705 271.454352 56.3866666 275.726946 54.9306786 276.723248 54.59116 278.32102 53.688956 278.327378 55.6580368 278.334372 57.5317472 281.327095 59.968143 277.888675 61.3046001 271.030271 63.9711565 263.804374 64.6616381 256.66749 63.1242673 244.480424 60.4990382 237.685601 49.6217264 239.246497 36.0804016 239.797738 31.2940793 241.073158 26.7468187 243.768325 22.6846756 248.80579 15.0931919 257.973428 11.497728 267.116906 13.514494 274.993229 15.2521426 280.393737 21.7939161 281.674879 31.1484805 282.895621 40.0598904 282.895621 40.0598904 274.132988 40.0598904L264.920844 40.0598904zM172.640574 52.0451518C175.625032 43.2113098 178.386323 35.0253507 181.156515 26.8419348 182.375985 23.2401128 183.707991 19.6726241 184.797757 16.0326539 185.277788 14.4278881 186.011504 13.9167027 187.681758 13.8880916 195.055797 13.7615669 195.093309 13.7176965 192.386697 20.597717 186.972202 34.3583937 182.10704 48.3390582 176.037668 61.8371484 173.388914 67.7291316 170.511907 73.5181147 165.726221 78.0730049 162.853664 80.8069563 159.604713 82.8784013 155.799434 84.1334758 154.351075 84.6115994 153.607822 84.471087 153.308359 82.94071 153.226976 82.5261667 153.169118 82.086827 152.983464 81.7174257 151.439735 78.6395051 151.954099 76.7155662 155.529853 75.4267943 158.513675 74.3522878 160.759966 71.9025402 162.875281 69.4960272 166.839511 64.9856432 168.431561 60.591611 165.568541 54.3442142 159.898453 41.9683156 155.23802 29.1314601 150.056864 16.5279442 149.143852 14.3077214 149.399444 13.7024372 151.922945 13.7272335 158.766089 13.7952644 158.81441 13.6719187 161.142719 20.0248588 164.958171 30.4342198 169.200246 40.6897165 172.640574 52.0451518M71.6656401 55.0193095C67.9690835 60.001459 63.6087489 63.0011759 57.92213 63.5435156 46.8865034 64.5964048 39.4914828 58.1582671 38.9281617 46.3507761 38.4449517 36.2001868 38.7851061 26.0114494 38.6814703 15.8405144 38.6649394 14.2268473 39.3160013 13.9846064 40.7338412 13.9273842 47.6412012 13.6482668 47.635479 13.6056681 47.6405654 20.5136639 47.6462876 27.613672 47.6323 34.7130444 47.6946086 41.811781 47.7085963 43.3885716 47.9006087 44.9831646 48.1968927 46.5345231 49.3534177 52.5784631 52.4974618 55.668464 57.6525497 55.9469455 63.6608848 56.2731123 68.8903616 52.7170681 70.5116583 47.1811344 71.021572 45.4403067 71.1582696 43.6537013 71.1525474 41.8384847 71.1290227 33.361328 71.2059548 24.8835355 71.0978684 16.4076503 71.0705288 14.2859769 71.5244919 13.4670631 73.8528012 13.4944026 80.0684079 13.5681557 80.0684079 13.4518038 80.0703153 19.5803056 80.0741302 33.1387971 80.039161 46.6972886 80.1300808 60.2551443 80.1427968 62.0646386 79.6951918 62.5770956 77.8844258 62.5999845 72.3809181 62.6699227 72.3821897 62.7506697 71.6656401 55.0193095M218.678854 6.91562542C218.679489 13.9399731 218.679489 13.9399731 225.727997 13.9399731 226.68043 13.9399731 227.653844 14.0677694 228.580844 13.9151768 231.046487 13.5101705 231.392363 14.6158313 231.54432 16.8729307 231.759857 20.0754687 230.626857 20.7551417 227.66656 20.6012775 224.766028 20.4505922 220.859021 19.2241289 219.178594 21.1639628 217.739773 22.8234077 218.701107 26.6051619 218.689662 29.4484713 218.665502 35.5858743 218.623539 41.7245489 218.726539 47.8600445 218.837804 54.4488673 221.189002 56.5012383 227.78927 56.0701641 229.050702 55.9881455 230.892622 55.2576083 230.620499 57.6202509 230.406233 59.4850601 232.45924 62.2317276 228.7239 62.967987 225.889491 63.5268576 223.044274 63.8466663 220.214317 63.3577341 213.864556 62.2622461 209.838653 56.8388495 209.802413 49.4050449 209.762357 41.1523265 209.817672 32.8983365 209.827845 24.6449823 209.832295 20.4620367 209.817672 20.2827403 205.648714 20.5154441 202.908405 20.6680367 202.176596 19.9400427 202.081861 17.0948258 201.97441 13.8687632 203.426584 13.5553125 205.80385 13.9062756 208.973326 14.3742263 210.595259 13.3747445 209.934024 9.91915714 209.85582 9.51097184 209.923215 9.07481122 209.923215 8.65136666 209.923215 1.74400667 209.936567 1.80695113 216.677347.363679116 218.217897.0336975404 218.805378.13924078 218.701107 1.83810546 218.597471 3.52488989 218.678218 5.22248297 218.678854 6.91562542"/>
      </g>
    </g>
    <g transform="translate(359.033 395.275)">
      <polygon fill="#453A62" points="0 0 26.173 39.236 0 78.469 19.63 78.469 45.803 39.236 19.63 0"/>
      <polygon fill="#5E5086" points="26.173 0 52.347 39.236 26.173 78.469 45.802 78.469 62.163 53.949 78.519 78.469 98.148 78.469 45.803 0"/>
      <path fill="#8F4E8B" d="M94.7416757,46.3115374 L90.6179848,40.1295009 L111.236439,40.1295009 L111.236439,46.3115374 L94.7416757,46.3115374 Z M100.927212,55.5833424 L96.8035211,49.4013058 L111.236439,49.4013058 L111.236439,55.5838423 L100.927212,55.5838423 L100.927212,55.5833424 Z"/>
    </g>
  </g>
</svg>
