<svg xmlns="http://www.w3.org/2000/svg" width="500" height="500" viewBox="0 0 500 500">
  <defs>
    <linearGradient id="zeppelin-icon-a" x1="0%" x2="97.959%" y1="0%" y2="97.959%">
      <stop offset="0%" stop-color="#2D70AB"/>
      <stop offset="100%" stop-color="#1D5586"/>
    </linearGradient>
  </defs>
  <g fill="none" fill-rule="evenodd">
    <rect width="500" height="500" fill="url(#zeppelin-icon-a)"/>
    <path fill="#FFF" d="M293.613428,325.65454 C309.132518,314.496544 324.981944,303.781498 339.220567,290.884237 C328.691544,308.680639 311.434856,317.543805 293.613428,325.65454 M216.344975,319.118737 C195.730712,326.625526 174.924587,333.418256 153.38772,337.698435 C147.6227,338.845433 141.791779,340.150091 135.726454,339.666266 C195.214354,318.28706 255.578977,299.100913 310.041775,265.973945 C310.206942,266.190832 310.382955,266.398542 310.569811,266.596243 C307.243934,270.587796 302.852809,273.304721 298.775336,276.387852 C273.734077,295.325413 245.691438,308.432054 216.344975,319.118737 M291.703155,228.727794 C226.848974,253.45123 162.898209,280.300157 99.4404457,310.66432 C114.344745,291.317176 266.795366,226.522222 291.703155,228.727794 M141.56238,235.782457 C168.999404,218.553297 197.665176,203.674857 228.574058,193.616311 C246.489749,187.785391 264.977687,184.851579 283.866865,184.927489 C288.218784,184.945007 292.574874,185.30871 296.789152,186.720143 C282.603916,188.432715 268.591356,190.710027 254.646364,193.507868 C235.585344,197.332585 217.81063,204.712578 200.287005,212.775765 C166.546914,228.300694 134.864746,247.440961 103.985894,267.973475 C102.844735,268.731745 101.584289,269.310666 100.378899,269.973839 C100.187037,269.756118 99.9960098,269.539231 99.8041483,269.322344 C111.924788,255.904554 126.382801,245.313801 141.56238,235.782457 M435.615106,202.289284 C435.802797,202.981654 435.615106,204.43563 435.615106,205.069607 C435.615106,207.403643 435.71771,209.531637 435.142126,211.744718 C434.08939,215.79216 434.111079,219.957223 433.205993,224.040535 C429.701602,239.850754 423.339309,254.875176 415.135146,268.804318 C407.296353,282.110328 398.104521,294.795708 386.833076,305.408984 C376.269017,315.357418 364.074969,323.454807 350.964992,329.648595 C347.666643,331.206844 344.312404,332.647473 340.916456,333.977157 C339.196376,334.649506 337.450437,335.251784 335.724518,335.910787 C334.815261,336.25864 333.281204,337.388954 332.310218,337.181243 C331.160717,336.93516 330.53258,334.338357 329.848552,333.39907 C328.975999,332.20369 327.855695,331.227699 326.584404,330.475268 C323.534641,328.670102 319.704919,328.078668 316.243905,327.685769 C307.287311,326.668069 298.355743,328.313073 289.520105,329.604384 C285.531889,330.18831 281.617915,330.494454 277.865772,332.081065 C274.554077,333.482488 271.549359,335.477847 268.428691,337.241304 C260.858504,341.515644 252.677698,344.75143 244.446841,347.500054 C240.560395,348.798872 236.635577,349.977569 232.691572,351.084526 C228.910233,352.146438 223.58566,352.48011 220.28314,354.640637 C217.64296,356.36739 219.01185,358.120837 219.001005,360.704294 C218.986824,363.995969 216.170632,363.998472 213.492913,364.240384 C204.563847,365.047036 195.622268,366.404248 186.688197,367.031551 C184.653632,367.173362 182.596543,366.977329 180.569485,367.252609 C178.358907,367.553748 176.79899,368.403778 174.516673,368.291163 L155.330526,368.291163 C155.899437,368.21859 156.469182,368.163534 157.038927,368.10681 C156.09964,368.188559 155.160353,368.263635 154.217729,368.291163 C152.279094,368.348722 151.334802,367.623819 149.441213,367.351042 C144.876578,366.692874 140.386186,366.014685 135.911643,364.856843 C121.854036,361.218149 106.444223,355.442284 95.3930029,345.735762 C86.0418417,337.523257 80.2025796,326.207602 78.8929166,313.835039 C75.6387792,283.1005 95.3537964,257.319324 116.261691,237.364897 C141.885208,212.910068 169.407318,189.89837 197.616793,168.479956 C211.39912,158.015999 226.012291,148.377045 241.910933,141.429158 C257.418345,134.650609 273.892572,130.394621 290.541976,127.545895 C294.680345,126.837676 298.835397,126.190352 303.000459,125.659813 C306.800984,125.175989 311.145395,125.646466 314.658963,123.876336 L328.134311,123.876336 C329.187881,123.876336 330.464177,123.684474 331.502731,123.876336 C332.395304,124.042338 332.67976,124.500303 333.582343,124.782256 C335.037153,125.238552 337.348667,124.80311 338.875217,124.932408 C346.583877,125.583903 354.244989,126.843515 361.733425,128.792995 C376.103849,132.535127 389.720174,138.865722 401.825799,147.468623 C413.576063,155.819602 424.704862,166.177619 430.44152,179.673822 C431.795394,182.860391 432.833949,186.180428 433.535495,189.570537 C434.237874,192.959812 434.026827,196.340744 434.548189,199.699154 C434.710855,200.742714 435.365686,201.369183 435.615106,202.289284 Z M75.1404399,328.22223 C76.3858711,331.439664 77.9574668,334.533639 79.4431419,337.655975 C79.9878616,338.799637 80.3790922,339.647164 78.5655842,339.944966 C64.3353025,342.274832 50.6756001,346.971267 36.6413508,350.116126 C36.1024703,350.237083 35.5444037,350.272952 35.0697551,350.338018 C33.9094103,350.292973 32.5021481,350.639992 32.0416806,349.416249 C31.5770422,348.179994 32.8266442,347.425895 33.690855,346.808602 C38.3222241,343.49774 43.364844,340.878414 48.435826,338.328325 C56.0994404,334.474412 63.8214474,330.734781 71.4800567,326.870858 C73.3394446,325.932405 74.3246116,326.113423 75.1404399,328.22223 Z M135.037255,212.829986 C135.672066,213.767605 134.872087,214.338184 134.223095,214.865386 C127.250182,220.527802 120.276434,226.186881 112.599473,232.418208 C113.21343,223.301452 114.675748,215.434297 120.533362,209.063662 C122.454479,206.974041 124.657549,205.26981 127.839947,206.222444 C131.311806,207.262667 133.166188,210.067181 135.037255,212.829986 Z M321.822653,333.128378 C326.067796,334.624064 326.884459,336.651956 325.65154,340.956326 C324.048246,346.55451 322.630974,352.22777 321.561554,357.947745 C320.960945,361.157671 319.476104,362.26713 316.353767,362.587456 C300.692032,364.191584 284.986919,363.959682 269.285144,363.428309 C255.667984,363.428309 242.050825,363.428309 228.433666,363.426641 C227.878102,363.426641 227.321704,363.427475 226.766139,363.40245 C224.618959,363.307353 224.042541,361.663184 223.700527,360.024854 C223.245899,357.848477 225.258776,358.042007 226.406608,357.706667 C233.464607,355.649578 240.560979,353.725124 247.632325,351.713915 C254.346643,349.804477 260.733127,347.10924 266.55654,343.237809 C280.348043,334.065997 295.820419,331.76783 311.910923,332.165734 C315.206769,332.247484 318.58937,331.988888 321.822653,333.128378 Z M315.1392,354.862112 C316.306219,354.76785 317.932036,354.924675 318.010449,353.202927 C318.078852,351.711413 316.700786,351.160854 315.498732,350.818006 C311.986833,349.814487 308.375666,349.721059 304.750319,349.809482 C294.029434,350.07058 283.425334,351.427792 272.882963,353.284677 C270.239446,353.75015 267.655155,354.555968 265.044171,355.20496 C265.093388,355.516109 265.142604,355.828093 265.192655,356.139242 C269.210067,356.139242 273.229148,356.088357 277.244892,356.149252 C289.898573,356.342782 302.528897,355.883149 315.1392,354.862112 Z M323.098115,341.69541 C324.044075,341.297506 324.849059,340.654353 324.620494,339.51236 C324.43614,338.588088 323.588613,338.272768 322.716894,338.170998 C321.615776,338.043369 320.507985,337.81814 319.408535,337.853176 C303.864419,338.343674 288.452938,339.903591 272.882963,343.662407 C273.731324,344.171257 273.954885,344.419843 274.182616,344.424848 C289.877718,344.802732 305.525272,344.114533 321.119439,342.290181 C321.794291,342.210933 322.465806,341.961514 323.098115,341.69541 Z"/>
  </g>
</svg>
